<svg width="483" height="618" viewBox="0 0 483 618" fill="none" xmlns="http://www.w3.org/2000/svg">
<path d="M416 57.658H4C1.79086 57.658 0 59.4489 0 61.658V613.658C0 615.867 1.79086 617.658 4 617.658H416C418.209 617.658 420 615.867 420 613.658V61.658C420 59.4489 418.209 57.658 416 57.658Z" fill="white"/>
<path d="M416 617.658H4C2.93951 617.657 1.9228 617.235 1.17291 616.485C0.42303 615.735 0.00121218 614.718 0 613.658V61.6578C0.00121218 60.5973 0.42303 59.5806 1.17291 58.8307C1.9228 58.0809 2.93951 57.659 4 57.6578H416C417.06 57.659 418.077 58.0809 418.827 58.8307C419.577 59.5806 419.999 60.5973 420 61.6578V613.658C419.999 614.718 419.577 615.735 418.827 616.485C418.077 617.235 417.06 617.657 416 617.658ZM4 59.6578C3.46974 59.6584 2.96135 59.8693 2.5864 60.2442C2.21145 60.6192 2.00057 61.1276 2 61.6578V613.658C2.00056 614.188 2.21144 614.696 2.5864 615.071C2.96135 615.446 3.46974 615.657 4 615.658H416C416.53 615.657 417.039 615.446 417.414 615.071C417.789 614.696 417.999 614.188 418 613.658V61.6578C417.999 61.1276 417.789 60.6192 417.414 60.2442C417.039 59.8693 416.53 59.6584 416 59.6578H4Z" fill="#CACACA"/>
<path d="M356.997 183.03H62.9971C61.0079 183.03 59.1002 182.24 57.6937 180.833C56.2872 179.427 55.4971 177.519 55.4971 175.53C55.4971 173.541 56.2872 171.633 57.6937 170.227C59.1002 168.82 61.0079 168.03 62.9971 168.03H356.997C358.986 168.03 360.894 168.82 362.3 170.227C363.707 171.633 364.497 173.541 364.497 175.53C364.497 177.519 363.707 179.427 362.3 180.833C360.894 182.24 358.986 183.03 356.997 183.03Z" fill="#E6E6E6"/>
<path d="M356.997 231.53H62.9971C61.0079 231.53 59.1002 230.74 57.6937 229.333C56.2872 227.927 55.4971 226.019 55.4971 224.03C55.4971 222.041 56.2872 220.133 57.6937 218.727C59.1002 217.32 61.0079 216.53 62.9971 216.53H356.997C358.986 216.53 360.894 217.32 362.3 218.727C363.707 220.133 364.497 222.041 364.497 224.03C364.497 226.019 363.707 227.927 362.3 229.333C360.894 230.74 358.986 231.53 356.997 231.53Z" fill="#E6E6E6"/>
<path d="M356.997 280.03H62.9971C61.0079 280.03 59.1002 279.24 57.6937 277.833C56.2872 276.427 55.4971 274.519 55.4971 272.53C55.4971 270.541 56.2872 268.633 57.6937 267.227C59.1002 265.82 61.0079 265.03 62.9971 265.03H356.997C358.986 265.03 360.894 265.82 362.3 267.227C363.707 268.633 364.497 270.541 364.497 272.53C364.497 274.519 363.707 276.427 362.3 277.833C360.894 279.24 358.986 280.03 356.997 280.03Z" fill="#E6E6E6"/>
<path d="M356.997 328.53H62.9971C61.0079 328.53 59.1002 327.74 57.6937 326.333C56.2872 324.927 55.4971 323.019 55.4971 321.03C55.4971 319.041 56.2872 317.133 57.6937 315.727C59.1002 314.32 61.0079 313.53 62.9971 313.53H356.997C358.986 313.53 360.894 314.32 362.3 315.727C363.707 317.133 364.497 319.041 364.497 321.03C364.497 323.019 363.707 324.927 362.3 326.333C360.894 327.74 358.986 328.53 356.997 328.53Z" fill="#E6E6E6"/>
<path d="M356.997 377.03H62.9971C61.0079 377.03 59.1002 376.24 57.6937 374.833C56.2872 373.427 55.4971 371.519 55.4971 369.53C55.4971 367.541 56.2872 365.633 57.6937 364.227C59.1002 362.82 61.0079 362.03 62.9971 362.03H356.997C358.986 362.03 360.894 362.82 362.3 364.227C363.707 365.633 364.497 367.541 364.497 369.53C364.497 371.519 363.707 373.427 362.3 374.833C360.894 376.24 358.986 377.03 356.997 377.03Z" fill="#E6E6E6"/>
<path d="M359.521 486.087H164.472C161.724 486.087 159.496 482.729 159.496 478.587C159.496 474.445 161.724 471.087 164.472 471.087H359.521C362.269 471.087 364.497 474.445 364.497 478.587C364.497 482.729 362.269 486.087 359.521 486.087Z" fill="#E6E6E6"/>
<path d="M359.521 529.087H164.472C161.724 529.087 159.496 525.729 159.496 521.587C159.496 517.445 161.724 514.087 164.472 514.087H359.521C362.269 514.087 364.497 517.445 364.497 521.587C364.497 525.729 362.269 529.087 359.521 529.087Z" fill="#E6E6E6"/>
<g filter="url(#filter0_d_31_564)">
<path d="M420 115.318C451.844 115.318 477.659 89.5032 477.659 57.659C477.659 25.8148 451.844 0 420 0C388.156 0 362.341 25.8148 362.341 57.659C362.341 89.5032 388.156 115.318 420 115.318Z" fill="#32509D"/>
</g>
<path d="M395.976 53.853C394.967 53.853 393.999 54.2539 393.285 54.9675C392.572 55.681 392.171 56.6488 392.171 57.658C392.171 58.6671 392.572 59.635 393.285 60.3485C393.999 61.0621 394.967 61.463 395.976 61.463H416.196V81.682C416.198 82.6895 416.6 83.6549 417.313 84.3665C418.027 85.0781 418.993 85.4778 420 85.4778C421.008 85.4778 421.974 85.0781 422.688 84.3665C423.401 83.6549 423.803 82.6895 423.805 81.682V61.463H444.025C445.034 61.463 446.002 61.0621 446.716 60.3485C447.429 59.635 447.83 58.6671 447.83 57.658C447.83 56.6488 447.429 55.681 446.716 54.9675C446.002 54.2539 445.034 53.853 444.025 53.853H423.805V33.633C423.805 32.624 423.404 31.6563 422.691 30.9428C421.977 30.2293 421.01 29.8285 420 29.8285C418.991 29.8285 418.024 30.2293 417.31 30.9428C416.597 31.6563 416.196 32.624 416.196 33.633V53.853H395.976Z" fill="white"/>
<defs>
<filter id="filter0_d_31_564" x="362.341" y="0" width="120.318" height="120.318" filterUnits="userSpaceOnUse" color-interpolation-filters="sRGB">
<feFlood flood-opacity="0" result="BackgroundImageFix"/>
<feColorMatrix in="SourceAlpha" type="matrix" values="0 0 0 0 0 0 0 0 0 0 0 0 0 0 0 0 0 0 127 0" result="hardAlpha"/>
<feOffset dx="4" dy="4"/>
<feGaussianBlur stdDeviation="0.5"/>
<feComposite in2="hardAlpha" operator="out"/>
<feColorMatrix type="matrix" values="0 0 0 0 0 0 0 0 0 0 0 0 0 0 0 0 0 0 0.1 0"/>
<feBlend mode="normal" in2="BackgroundImageFix" result="effect1_dropShadow_31_564"/>
<feBlend mode="normal" in="SourceGraphic" in2="effect1_dropShadow_31_564" result="shape"/>
</filter>
</defs>
</svg>
