<svg width="767" height="600" viewBox="0 0 767 600" fill="none" xmlns="http://www.w3.org/2000/svg">
<g clip-path="url(#clip0_40_297)">
<path opacity="0.1" d="M268.983 588.379C342.856 588.379 402.742 577.034 402.742 563.04C402.742 549.045 342.856 537.701 268.983 537.701C195.11 537.701 135.225 549.045 135.225 563.04C135.225 577.034 195.11 588.379 268.983 588.379Z" fill="white"/>
<path opacity="0.1" d="M445.521 84.6151C396.362 82.9137 349.542 67.0388 304.835 49.6753C260.127 32.3117 215.844 13.0796 167.863 3.88136C137.002 -2.03562 101.705 -2.87873 76.8448 13.6493C52.911 29.6001 45.1787 57.0582 41.0239 82.5567C37.8945 101.743 36.0564 121.94 44.6242 139.904C50.5792 152.376 61.1371 162.857 68.444 174.805C93.8666 216.369 75.8953 267.624 48.3537 308.207C35.4411 327.242 20.4398 345.426 10.4668 365.668C0.493723 385.91 -4.11681 409.183 4.61054 429.889C13.2543 450.397 33.8612 465.77 56.1847 476.594C101.523 498.583 154.928 504.872 207.041 508.442C322.365 516.327 438.297 512.916 553.925 509.491C596.719 508.23 639.695 506.946 681.79 500.33C705.169 496.654 729.3 490.821 746.276 476.738C767.817 458.866 773.157 428.605 758.718 406.198C734.503 368.6 667.571 359.265 650.625 318.924C641.313 296.715 650.875 271.984 664.418 251.392C693.464 207.208 742.144 168.448 744.704 117.952C746.466 83.2707 723.064 48.5359 686.879 32.1218C648.954 14.9178 596.354 17.0825 568.387 45.5585C539.562 74.8471 488.929 86.1266 445.521 84.6151Z" fill="white"/>
<path d="M406.456 274.764L383.191 259.079L394.926 241.609L333.478 236.71L311.397 253.785L283.757 238.289L260.704 241.062L260.431 234.985C260.145 228.651 259.509 222.337 258.524 216.072C258.623 214.173 258.691 211.993 258.684 209.624C258.684 199.635 257.332 186.396 251.392 177.57L252.759 165.28L241.669 152.178C243.45 148.631 245.481 145.214 247.746 141.954C248.126 141.407 248.506 140.876 248.916 140.359C263.309 139.319 274.665 127.485 274.665 113.015C274.665 112.347 274.665 111.678 274.589 111.017C274.589 110.752 274.536 110.478 274.505 110.212C275.91 110.972 277.331 111.731 278.751 112.491C279.017 112.871 279.321 113.251 279.655 113.699L279.723 113.782L280.149 114.306L280.286 114.466C280.437 114.648 280.597 114.823 280.756 115.005L280.863 115.127C281.265 115.575 281.691 116.031 282.146 116.479C282.201 116.523 282.252 116.571 282.298 116.623L282.868 117.155L283.028 117.299C283.514 117.732 284.03 118.15 284.547 118.545L284.714 118.666L285.367 119.114L285.58 119.251C285.83 119.403 286.089 119.562 286.339 119.707L286.43 119.76C286.727 119.919 287.03 120.071 287.334 120.216L287.486 120.276C287.744 120.388 287.998 120.494 288.246 120.595L288.481 120.679C288.747 120.77 289.005 120.854 289.279 120.93L289.446 120.975C289.78 121.059 290.114 121.127 290.456 121.18H290.494C290.816 121.232 291.141 121.265 291.466 121.279H291.687C291.978 121.294 292.269 121.294 292.56 121.279H292.75C293.114 121.258 293.477 121.215 293.836 121.15C295.536 120.927 297.167 120.341 298.621 119.433C298.992 119.186 299.32 118.881 299.594 118.529C301.113 116.539 299.442 114.359 299.442 114.359C298.849 112.947 295.006 111.952 295.006 111.952C295.006 111.952 282.853 106.878 282.853 102.837C282.853 98.7961 279.815 77.8322 248.452 73.0394C248.452 73.0394 228.051 71.8924 222.316 82.8149L222.194 84.091C220.508 85.1468 219.111 87.266 217.447 87.8888C216.728 88.0431 216.035 88.2989 215.389 88.6484V88.504C215.197 88.672 215.039 88.8758 214.925 89.1041C214.568 89.815 214.354 90.5893 214.295 91.3828C214.124 92.3521 213.787 93.2848 213.3 94.14C213.164 94.383 213.012 94.6165 212.844 94.8388L212.715 95.0439C213.597 95.1126 214.482 94.9693 215.298 94.6261C215.169 95.666 214.914 96.6863 214.538 97.6643C215.021 97.6799 215.498 97.5565 215.913 97.3088C216.327 97.061 216.662 96.6993 216.877 96.2668V96.206L216.976 96.0693C217.167 95.7176 217.325 95.3489 217.447 94.9679L217.364 95.059C217.515 94.5653 217.652 94.064 217.819 93.5779C217.896 93.3041 218.022 93.0466 218.191 92.8183C218.394 92.614 218.642 92.4601 218.915 92.369C219.188 92.278 219.479 92.2524 219.764 92.2942L219.452 98.8796H219.589C219.406 99.3587 219.182 99.8212 218.921 100.262C217.842 102.009 215.882 103.202 215.161 105.116C214.85 106.039 214.731 107.016 214.811 107.987C214.811 108.556 214.88 109.134 214.925 109.703V109.658C215.032 111.177 215.062 112.62 214.242 113.843C213.68 114.679 212.776 115.309 212.464 116.258C212.378 116.523 212.34 116.801 212.35 117.079C212.411 117.911 212.585 118.731 212.867 119.517C212.87 119.502 212.87 119.486 212.867 119.471C213.056 120.049 213.101 120.665 212.996 121.264C212.654 122.783 210.809 124.051 210.9 125.502C210.894 125.693 210.923 125.883 210.983 126.064C211.338 126.773 211.953 127.317 212.7 127.583C213.871 128.249 215.216 128.546 216.558 128.434C217.062 128.343 217.548 128.177 218.002 127.94C217.47 129.163 216.923 130.371 216.368 131.518C216.285 131.7 216.194 131.883 216.103 132.065C216.103 132.065 211.409 128.928 208.743 135.323C207.964 136.652 207.408 138.099 207.094 139.607C206.961 140.211 206.773 140.8 206.532 141.369C205.349 143.373 203.577 144.964 201.458 145.927C196.02 148.418 174.053 175.816 173.666 182.91C173.476 185.679 173.008 188.422 172.268 191.098C170.539 197.399 170.095 203.983 170.962 210.459C171.233 212.552 171.683 214.618 172.306 216.634C174.638 223.721 176.195 236.945 176.195 236.945L178.717 259.899C178.623 263.067 178.761 266.238 179.127 269.386C176.552 272.325 166.215 284.577 170.164 287.912C173.203 290.54 178.52 290.107 181.505 289.567C178.991 295.788 175.033 306.604 174.509 314.033C173.75 325.024 175.808 339.585 179.066 345.175C182.325 350.765 193.187 365.106 193.187 365.106C193.187 365.106 192.678 384.778 196.559 391.926C200.441 399.073 202.005 413.9 202.005 413.9C202.005 413.9 205.628 426.418 203.813 431.02C201.998 435.623 207.178 439.452 201.739 442.513C196.301 445.574 189.343 514.565 189.343 514.565C189.343 514.565 186.541 559.781 189.343 562.083C189.493 562.192 189.654 562.286 189.822 562.364V577.555C189.822 577.555 187.877 580.745 195.784 581.391C201.2 581.824 216.551 582.804 225.658 583.373L232.714 583.814C232.714 583.814 249.425 587.141 256.808 583.814C264.19 580.487 277.278 580.563 275.333 571.775C275.075 570.579 274.73 569.403 274.3 568.258C272.166 562.804 268.543 562.181 261.866 560.662C261.479 560.579 261.107 560.503 260.765 560.442C253.731 559.219 251.422 562.493 247.48 558.232C244.054 554.548 233.147 550.423 229.433 549.117C229.524 548.844 229.638 548.578 229.729 548.297C228.677 548.118 227.699 547.641 226.911 546.922L236.975 547.56L242.968 547.932C242.968 547.932 257.172 550.765 263.476 547.932C269.781 545.099 280.87 545.175 279.215 537.708C278.996 536.691 278.705 535.691 278.341 534.716C276.526 530.082 273.442 529.573 267.768 528.29C267.441 528.221 267.138 528.153 266.834 528.1C260.856 527.059 258.896 529.839 255.547 526.224C252.676 523.14 243.614 519.684 240.355 518.507C240.355 516.82 238.077 514.42 236.641 512.012C234.955 509.202 238.069 499.366 238.069 499.366L239.847 458.555C240.523 458.253 241.239 458.049 241.973 457.947C241.973 457.947 250.009 450.275 248.194 442.102C247.824 439.631 247.631 437.135 247.617 434.636C250.26 432.183 253.898 428.56 254.931 426.326C256.618 422.688 254.931 405.059 254.931 405.059V337.648L268.376 339.007L280.574 340.261L284.288 340.64L296.487 341.871L324.522 344.704L349.785 339.919L360.715 337.853L383.191 333.599V278.607L406.456 274.764ZM221.42 92.5373L219.855 92.3702C220.371 92.393 220.918 92.4917 221.42 92.5373Z" fill="url(#paint0_linear_40_297)"/>
<path d="M351.927 310.471C344.332 321.34 317.026 315.582 317.026 315.582L295.864 295.781L293.016 293.099L297.794 282.952C297.794 282.952 299.313 283.369 301.918 284.114C315.598 288.086 358.338 301.333 351.927 310.471Z" fill="#EFB7B9"/>
<path opacity="0.1" d="M301.903 284.114C300.968 287.365 298.409 292.233 295.864 295.781L293.016 293.099L297.793 282.952C297.793 282.952 299.328 283.369 301.903 284.114Z" fill="black"/>
<path d="M229.327 169.678C229.327 169.678 209.821 178.33 210.778 199.575C211.467 213.262 212.958 226.896 215.244 240.409C215.244 240.409 211.257 272.379 227.861 280.62C244.465 288.861 259.831 295.636 259.831 295.636C259.831 295.636 285.808 298.432 289.036 299.586C292.264 300.741 302.351 283.088 300.49 280.339C298.629 277.589 274.786 271.824 271.748 267.236C268.71 262.649 261.684 259.815 261.684 259.815C261.684 259.815 254.43 255.425 253.936 251.46C253.443 247.495 255.357 244.541 255.843 242.801C256.329 241.062 257.56 224.268 257.56 224.268C257.56 224.268 265.748 164.491 229.327 169.678Z" fill="#DCE6F2"/>
<path opacity="0.1" d="M242.201 239.535C242.201 239.535 215.442 244.017 218.032 253.382C218.032 253.382 227.747 243.272 242.201 239.535Z" fill="black"/>
<path opacity="0.1" d="M242.406 243.325C242.406 243.325 227.694 255.334 230.572 255.949C233.451 256.565 242.406 243.325 242.406 243.325Z" fill="black"/>
<path opacity="0.1" d="M249.478 247.511C249.478 247.511 245.536 255.585 247.959 255.038C250.382 254.491 249.478 247.511 249.478 247.511Z" fill="black"/>
<path opacity="0.1" d="M302.89 284.972L301.265 284.509C301.728 282.99 301.857 281.759 301.477 281.189C299.616 278.44 275.789 272.682 272.758 268.087C269.728 263.492 262.694 260.666 262.694 260.666C262.694 260.666 255.44 256.276 254.947 252.311C254.453 248.346 256.367 245.391 256.853 243.652C257.339 241.913 258.57 225.111 258.57 225.111C258.57 225.111 266.735 165.341 230.314 170.529C230.314 170.529 210.809 179.188 211.758 200.433C212.447 214.12 213.941 227.755 216.232 241.267C216.232 241.267 212.244 273.237 228.848 281.478C245.452 289.719 260.818 296.495 260.818 296.495C260.818 296.495 286.787 299.282 290.023 300.444C291.246 300.885 293.456 298.614 295.621 295.492L296.852 296.639L318.013 316.433C318.013 316.433 345.319 322.198 352.915 311.329C359.333 302.184 316.6 288.937 302.89 284.972Z" fill="black"/>
<path d="M218.1 89.9396C217.357 90.085 216.645 90.3601 215.996 90.7524C215.237 91.3828 215.237 92.4614 215.047 93.4032C214.824 94.7134 214.304 95.9553 213.528 97.0339C214.392 97.0973 215.259 96.9541 216.057 96.6162C215.927 97.6558 215.672 98.6759 215.298 99.6544C215.771 99.6665 216.238 99.5417 216.642 99.2952C217.046 99.0486 217.37 98.6907 217.576 98.2644C217.978 97.4085 218.296 96.5156 218.526 95.5984C218.597 95.324 218.721 95.0661 218.89 94.8388C219.589 94.0109 220.888 94.3831 221.966 94.4894C222.864 94.5651 223.766 94.3994 224.578 94.0094C225.39 93.6194 226.083 93.0194 226.585 92.2715C227.732 90.5321 227.8 86.0811 225.066 85.6101C222.21 85.1392 220.432 89.0737 218.1 89.9396Z" fill="#965D7B"/>
<g opacity="0.1">
<path opacity="0.1" d="M215.92 91.6866C215.989 91.3144 216.034 90.9271 216.118 90.5549C215.396 91.1853 215.358 92.2563 215.168 93.2057C215.073 93.7536 214.923 94.2904 214.72 94.8084C215.318 93.8552 215.726 92.795 215.92 91.6866Z" fill="black"/>
<path opacity="0.1" d="M216.163 97.9606C216.542 96.9833 216.797 95.9627 216.923 94.9224C216.163 95.2425 215.339 95.3853 214.515 95.3401C214.275 95.8743 213.983 96.3832 213.642 96.8592C214.503 96.9259 215.368 96.7852 216.163 96.4491C216.037 97.4894 215.782 98.51 215.404 99.4873C215.877 99.4984 216.343 99.3733 216.747 99.1269C217.151 98.8804 217.476 98.5231 217.683 98.0973C217.872 97.7521 218.025 97.3881 218.138 97.0112C217.915 97.3226 217.618 97.5729 217.273 97.7388C216.927 97.9048 216.546 97.9811 216.163 97.9606Z" fill="black"/>
<path opacity="0.1" d="M222.832 92.7955C221.754 92.6892 220.447 92.317 219.749 93.145C219.582 93.3741 219.459 93.6314 219.384 93.9045C219.316 94.102 219.255 94.3071 219.202 94.5122C219.923 93.9425 221.093 94.2463 222.073 94.3451C222.97 94.4183 223.871 94.2515 224.682 93.8618C225.494 93.472 226.187 92.8733 226.691 92.1271C226.921 91.7583 227.093 91.356 227.2 90.9346C226.68 91.5785 226.009 92.0848 225.248 92.4092C224.486 92.7337 223.657 92.8663 222.832 92.7955Z" fill="black"/>
</g>
<path d="M240.963 152.672L252.546 166.602L251.035 180.662L237.036 158.748L240.963 152.672Z" fill="#DCE6F2"/>
<path opacity="0.1" d="M252.539 166.602L251.118 179.826L251.027 180.662L238.396 160.883L237.036 158.748L237.431 158.133L240.955 152.672L241.738 153.614L252.539 166.602Z" fill="black"/>
<path d="M258.555 133.812C254.635 134.936 250.891 138.795 247.632 143.481C245.43 146.715 243.46 150.101 241.738 153.614C240.667 155.756 239.725 157.814 238.943 159.607L238.396 160.883C237.074 164.004 236.337 166.093 236.337 166.093C236.337 166.093 206.335 143.534 211.082 142.015C212.677 141.506 214.773 138.088 216.847 133.781L217.105 133.235C218.419 130.47 219.711 127.386 220.857 124.484C223.205 118.522 224.944 113.342 224.944 113.342C224.944 113.342 270.518 130.394 258.555 133.812Z" fill="#EFB7B9"/>
<path d="M276.503 112.073C276.503 112.073 283.43 124.606 292.735 122.897C302.039 121.188 298.211 116.167 298.211 116.167L276.503 112.073Z" fill="#444053"/>
<path d="M263.082 545.896C256.944 548.699 243.067 545.896 243.067 545.896L237.218 545.532C229.623 545.046 216.908 544.225 212.411 543.861C205.849 543.322 207.459 540.633 207.459 540.633V524.386L239.3 516.319C239.3 516.319 251.886 520.626 255.334 524.386C258.608 527.971 260.522 525.214 266.363 526.247C266.651 526.3 266.955 526.361 267.274 526.436C272.819 527.705 275.827 528.206 277.604 532.802C277.962 533.767 278.248 534.757 278.463 535.764C280.103 543.162 269.211 543.109 263.082 545.896Z" fill="#A36468"/>
<path opacity="0.1" d="M277.604 532.802C276.463 533.515 275.264 534.129 274.019 534.64C269.842 536.546 265.869 538.87 261.646 540.671C257.423 542.471 252.873 543.755 248.3 543.413C245.908 543.238 243.462 542.653 241.176 543.337C239.762 543.883 238.43 544.621 237.218 545.532C229.623 545.046 216.908 544.225 212.411 543.861C205.849 543.322 207.459 540.633 207.459 540.633V538.734C207.694 538.734 207.96 538.665 208.264 538.643C209.836 538.618 211.401 538.851 212.897 539.334C216.194 540.23 219.475 541.111 222.772 541.992C223.043 540.969 223.519 540.012 224.172 539.179C224.825 538.346 225.641 537.654 226.569 537.146C228.451 536.148 230.563 535.663 232.691 535.741C237.803 535.809 242.642 538.232 247.746 538.476C249.173 538.607 250.61 538.366 251.916 537.777C252.615 537.427 253.23 536.918 253.914 536.531C255.008 536.002 256.164 535.611 257.354 535.369C260.702 534.536 263.988 533.475 267.191 532.194C268.102 531.837 269.166 531.191 269.044 530.219C268.885 528.928 266.857 528.776 266.325 527.591C266.231 527.377 266.188 527.145 266.198 526.912C266.209 526.679 266.273 526.451 266.386 526.247C266.674 526.3 266.978 526.361 267.297 526.436C272.819 527.705 275.827 528.206 277.604 532.802Z" fill="black"/>
<path d="M256.595 581.444C249.379 584.74 233.048 581.444 233.048 581.444L226.174 581.041C217.272 580.472 202.279 579.522 196.985 579.074C189.26 578.436 191.159 575.276 191.159 575.276V556.128L228.628 546.633C228.628 546.633 243.439 551.7 247.495 556.128C251.346 560.343 253.572 557.1 260.476 558.315C260.818 558.376 261.175 558.452 261.547 558.536C268.072 560.055 271.611 560.624 273.7 566.032C274.123 567.168 274.461 568.333 274.71 569.519C276.594 578.223 263.811 578.155 256.595 581.444Z" fill="#A36468"/>
<path opacity="0.1" d="M273.685 566.032C272.343 566.871 270.933 567.595 269.469 568.197C264.555 570.438 259.876 573.172 254.909 575.291C249.941 577.411 244.586 578.915 239.201 578.52C236.391 578.314 233.512 577.608 230.846 578.428C229.175 579.079 227.603 579.958 226.174 581.041C217.272 580.472 202.279 579.522 196.985 579.074C189.26 578.436 191.159 575.276 191.159 575.276V573.043C191.473 572.992 191.79 572.956 192.108 572.937C193.959 572.903 195.802 573.178 197.562 573.75L209.175 576.879C209.499 575.672 210.065 574.543 210.84 573.563C211.614 572.582 212.581 571.769 213.68 571.175C215.894 569.994 218.381 569.423 220.888 569.519C226.904 569.602 232.593 572.451 238.601 572.739C240.274 572.892 241.958 572.612 243.492 571.927C244.32 571.509 245.012 570.909 245.847 570.461C247.132 569.832 248.493 569.372 249.896 569.093C253.813 568.105 257.659 566.857 261.41 565.356C262.481 564.931 263.735 564.171 263.59 563.032C263.401 561.513 261.016 561.331 260.385 559.933C260.279 559.681 260.23 559.408 260.244 559.135C260.257 558.861 260.331 558.594 260.461 558.353C260.803 558.414 261.16 558.49 261.532 558.574C268.057 560.032 271.596 560.624 273.685 566.032Z" fill="black"/>
<path d="M240.264 450.047L238.236 497.771C238.236 497.771 235.198 507.516 236.846 510.303C238.495 513.091 241.275 515.871 240.264 517.519C239.254 519.167 227.101 536.987 223.174 530.151C219.247 523.315 215.374 493.692 215.374 493.692L218.997 457.104L240.264 450.047Z" fill="#444053"/>
<path d="M249.06 331.146L254.696 338.681V404.216C254.696 404.216 256.344 421.686 254.696 425.293C253.048 428.901 244.693 436.117 244.693 436.117L237.667 400.038L239.186 361.87L249.06 331.146Z" fill="#444053"/>
<path opacity="0.1" d="M240.264 450.047L238.236 497.771C238.236 497.771 235.198 507.516 236.846 510.303C238.495 513.091 241.275 515.871 240.264 517.519C239.254 519.167 227.101 536.987 223.174 530.151C219.247 523.315 215.374 493.692 215.374 493.692L218.997 457.104L240.264 450.047Z" fill="black"/>
<path opacity="0.1" d="M249.06 331.146L254.696 338.681V404.216C254.696 404.216 256.344 421.686 254.696 425.293C253.048 428.901 244.693 436.117 244.693 436.117L237.667 400.038L239.186 361.87L249.06 331.146Z" fill="black"/>
<path d="M254.696 303.194V338.643L248.369 366.237C248.369 366.237 246.341 432.828 248.111 440.925C249.88 449.022 242.034 456.625 242.034 456.625C242.034 456.625 237.477 457.134 237.477 460.674C237.477 464.213 229.881 474.346 229.881 474.346L230.132 494.094C230.132 494.094 233.428 531.062 228.362 538.149C223.296 545.236 230.132 546.253 230.132 546.253C223.805 567.012 193.422 562.204 190.68 559.926C187.938 557.647 190.68 512.833 190.68 512.833C190.68 512.833 197.471 444.472 202.788 441.434C208.105 438.396 203.046 434.598 204.816 430.041C206.585 425.483 203.046 413.08 203.046 413.08C203.046 413.08 201.527 398.39 197.729 391.303C193.931 384.216 194.432 364.718 194.432 364.718C194.432 364.718 183.799 350.537 180.639 344.97C177.479 339.402 175.443 324.971 176.203 314.078C176.719 306.718 180.586 296.001 183.039 289.833C184.216 286.879 185.067 284.964 185.067 284.964L185.789 285.154L227.276 296.016L254.696 303.194Z" fill="#444053"/>
<path opacity="0.1" d="M258.555 133.812C254.635 134.936 250.891 138.795 247.632 143.481H246.781C242.005 143.484 237.313 142.227 233.178 139.836C229.044 137.444 225.614 134.004 223.235 129.862C222.241 128.146 221.441 126.324 220.85 124.431C223.197 118.469 224.936 113.289 224.936 113.289C224.936 113.289 270.518 130.394 258.555 133.812Z" fill="black"/>
<path d="M273.936 114.823C273.942 118.979 272.995 123.081 271.167 126.813C269.338 130.545 266.678 133.808 263.39 136.35C260.101 138.892 256.274 140.645 252.201 141.475C248.129 142.304 243.921 142.188 239.9 141.135C235.88 140.082 232.155 138.12 229.012 135.4C225.87 132.68 223.393 129.276 221.774 125.448C220.154 121.621 219.435 117.473 219.671 113.323C219.907 109.174 221.093 105.134 223.136 101.515C223.959 100.045 224.921 98.6562 226.007 97.3681C227.799 95.2342 229.904 93.385 232.251 91.8841C236.215 89.3647 240.766 87.9169 245.457 87.682C250.149 87.4472 254.821 88.4333 259.017 90.5441C263.213 92.6549 266.79 95.8181 269.399 99.7248C272.007 103.631 273.557 108.148 273.898 112.833C273.913 113.501 273.936 114.162 273.936 114.823Z" fill="#EFB7B9"/>
<path opacity="0.1" d="M251.118 179.826L251.027 180.662L238.396 160.913C237.074 164.035 236.337 166.124 236.337 166.124C236.337 166.124 206.335 143.534 211.082 142.015C212.677 141.506 214.773 138.088 216.847 133.782L217.105 133.235C219.308 139.797 232.107 152.915 237.431 158.171C238.046 158.779 238.555 159.28 238.95 159.645L239.763 160.404L240.188 160.829C242.125 162.827 250.298 171.638 251.118 179.826Z" fill="black"/>
<path d="M260.56 246.835L259.177 291.322L258.934 299.244C258.934 299.244 242.558 297.725 227.276 296.054C214.971 294.71 203.372 293.259 201.587 292.408C199.309 291.337 194.425 290.509 190.574 289.985C187.596 289.583 185.257 289.37 185.257 289.37C185.257 289.37 184.383 289.628 183.039 289.871C180.107 290.403 174.957 290.836 171.957 288.231C168.121 284.896 178.201 272.781 180.715 269.872L181.269 269.242L180.32 260.469L177.851 237.72C177.851 237.72 176.332 224.617 174.053 217.591C173.444 215.594 173.005 213.548 172.739 211.477C171.893 205.06 172.326 198.539 174.015 192.29C174.737 189.635 175.195 186.916 175.383 184.171C175.762 177.145 197.22 149.991 202.537 147.522C204.929 146.407 206.853 144.487 207.975 142.099C208.346 141.348 208.624 140.554 208.803 139.736C211.082 129.862 216.847 133.781 216.847 133.781C218.237 141.506 239.755 161.954 239.755 161.954L240.181 162.379C242.315 164.566 251.825 174.836 251.149 183.601C251.014 186.863 251.501 190.122 252.584 193.202C256.961 206.984 259.478 221.289 260.066 235.737L260.56 246.835Z" fill="#DCE6F2"/>
<path opacity="0.1" d="M230.071 194.007C230.071 194.007 224.754 206.92 220.766 209.008C216.779 211.097 231.97 213.414 230.071 194.007Z" fill="black"/>
<path opacity="0.1" d="M234.059 218.123C234.059 218.123 221.906 219.642 221.906 221.921C221.906 224.2 234.059 218.123 234.059 218.123Z" fill="black"/>
<path opacity="0.1" d="M246.781 232.935C246.781 232.935 229.122 270.533 224.184 271.672C219.247 272.812 246.781 232.935 246.781 232.935Z" fill="black"/>
<path opacity="0.1" d="M239.421 163.86L224.815 170.21L207.185 143.58C207.556 142.829 207.834 142.036 208.013 141.218C210.292 131.343 216.057 135.263 216.057 135.263C217.447 142.987 238.965 163.435 238.965 163.435L239.421 163.86Z" fill="black"/>
<path d="M240.181 162.341L225.574 168.691L207.945 142.061C208.315 141.31 208.593 140.516 208.773 139.698C211.052 129.824 216.817 133.744 216.817 133.744C218.207 141.468 239.725 161.916 239.725 161.916L240.181 162.341Z" fill="#DCE6F2"/>
<path opacity="0.1" d="M258.934 299.244C258.934 299.244 242.558 297.725 227.276 296.054L254.696 303.232V311.587C253.496 312.673 252.455 313.235 251.779 312.947C248.619 311.618 222.832 307.44 222.832 307.44C222.832 307.44 207.854 299.844 191.69 290.73C191.298 290.512 190.918 290.274 190.551 290.016C188.666 288.736 187.042 287.109 185.766 285.223C182.781 280.901 181.322 275.348 180.692 269.902C180.338 266.781 180.206 263.639 180.297 260.499C180.375 256.939 180.7 253.388 181.269 249.873C179.706 236.257 178.945 222.561 178.991 208.857C179.18 187.589 199.119 179.993 199.119 179.993C235.768 176.765 224.405 236.011 224.405 236.011C224.405 236.011 222.286 252.721 221.708 254.43C221.131 256.139 219.057 258.988 219.338 262.975C219.619 266.963 226.623 271.733 226.623 271.733C226.623 271.733 233.459 274.938 236.277 279.686C238.327 283.187 251.65 287.934 259.177 291.322L258.934 299.244Z" fill="black"/>
<path opacity="0.1" d="M271.209 97.9606C271.223 99.2116 270.964 100.451 270.449 101.591C270.06 102.522 269.608 103.425 269.097 104.295C268.298 105.896 267.163 107.305 265.77 108.427C264.016 109.681 261.798 110.03 259.694 110.539C257.59 111.048 255.402 111.861 254.202 113.653C253.552 114.805 253.117 116.067 252.919 117.375C252.717 118.682 252.195 119.919 251.399 120.975C250.985 121.491 250.411 121.854 249.768 122.008C249.124 122.162 248.448 122.098 247.845 121.826C247.209 121.398 246.728 120.778 246.47 120.056C245.604 118.104 245.384 115.939 245.034 113.835C244.685 111.731 244.191 109.567 242.9 107.873C241.609 106.179 239.322 105.062 237.294 105.723C236.616 105.985 235.997 106.38 235.475 106.887C234.952 107.393 234.538 108 234.256 108.67C233.695 110.013 233.309 111.422 233.109 112.863C232.167 118.018 231.056 123.143 229.775 128.237C229.736 128.445 229.65 128.643 229.524 128.814C229.322 129.015 229.05 129.13 228.765 129.133C227.063 129.361 225.43 128.168 223.713 128.297C223.537 128.309 223.361 128.337 223.189 128.381C220.414 123.557 219.188 117.997 219.679 112.454C220.169 106.911 222.352 101.652 225.931 97.3909L226.068 97.3529C227.21 96.9475 228.248 96.2938 229.106 95.4388C230.203 94.3416 231.218 93.1663 232.145 91.9221L232.752 91.1625C234.498 89.0592 236.487 87.17 238.677 85.5341C239.275 85.0444 239.96 84.6732 240.697 84.4404C241.328 84.3175 241.974 84.297 242.611 84.3796C245.234 84.6945 247.879 84.7936 250.518 84.6758C252.357 84.3867 254.211 84.1991 256.071 84.1138C260.879 84.2505 264.98 87.6457 268.019 91.3676C269.652 93.2741 271.11 95.4692 271.209 97.9606Z" fill="black"/>
<path d="M219.589 102.237C218.533 103.969 216.627 105.146 215.913 107.045C214.865 109.802 216.634 113.235 215.009 115.696C214.47 116.524 213.581 117.139 213.277 118.089C212.761 119.692 214.173 121.401 213.809 123.049C213.444 124.697 211.272 126.087 211.849 127.697C212.19 128.4 212.789 128.944 213.52 129.217C214.671 129.877 215.996 130.171 217.318 130.06C219.392 129.718 220.933 127.682 223.037 127.53C224.746 127.409 226.38 128.594 228.081 128.373C228.366 128.363 228.637 128.247 228.841 128.047C228.97 127.878 229.056 127.679 229.091 127.47C230.367 122.38 231.481 117.256 232.433 112.096C232.627 110.654 233.01 109.245 233.573 107.903C233.857 107.234 234.272 106.629 234.794 106.122C235.315 105.616 235.933 105.22 236.611 104.956C238.639 104.303 240.918 105.412 242.216 107.106C243.515 108.8 244.009 110.964 244.358 113.068C244.708 115.172 244.928 117.337 245.786 119.289C246.047 120.013 246.531 120.635 247.169 121.066C248.308 121.727 249.842 121.203 250.716 120.216C251.516 119.159 252.038 117.919 252.235 116.608C252.433 115.302 252.868 114.043 253.519 112.894C254.719 111.101 256.914 110.288 259.01 109.779C261.107 109.27 263.317 108.913 265.087 107.66C266.478 106.539 267.612 105.132 268.414 103.536C269.538 101.576 270.586 99.4493 270.495 97.1934C270.396 94.7325 268.938 92.5373 267.381 90.6232C264.342 86.9014 260.233 83.5061 255.425 83.377C253.565 83.4548 251.711 83.6425 249.873 83.9391C247.233 84.0578 244.588 83.9562 241.966 83.6353C241.328 83.559 240.682 83.582 240.052 83.7036C239.314 83.9289 238.629 84.301 238.039 84.7974C235.847 86.4305 233.855 88.3172 232.107 90.4181C230.979 91.9133 229.756 93.3341 228.446 94.6717C227.587 95.528 226.549 96.1842 225.407 96.5934C224.648 96.806 223.888 96.6541 223.167 96.8896C220.926 97.596 220.63 100.52 219.589 102.237Z" fill="#965D7B"/>
<path opacity="0.1" d="M292.735 122.889C286.658 124.006 281.622 119.092 278.835 115.506C277.979 114.418 277.199 113.27 276.503 112.073L297.36 116.008L298.204 116.167C298.204 116.167 302.039 121.188 292.735 122.889Z" fill="black"/>
<g opacity="0.1">
<path opacity="0.1" d="M213.809 120.877C213.894 119.883 213.743 118.884 213.368 117.96C213.368 118.036 213.3 118.112 213.277 118.188C212.95 119.206 213.391 120.261 213.672 121.317C213.732 121.175 213.778 121.028 213.809 120.877Z" fill="black"/>
<path opacity="0.1" d="M215.617 108.443C215.538 109.493 215.559 110.548 215.677 111.595C215.755 110.544 215.735 109.489 215.617 108.443Z" fill="black"/>
<path opacity="0.1" d="M268.368 101.341C267.569 102.941 266.434 104.35 265.041 105.473C263.287 106.726 261.076 107.075 258.965 107.584C256.853 108.093 254.673 108.906 253.473 110.698C252.824 111.851 252.389 113.112 252.189 114.42C251.992 115.731 251.469 116.971 250.67 118.028C249.797 119.016 248.262 119.547 247.123 118.879C246.486 118.448 246.002 117.826 245.741 117.102C244.882 115.149 244.655 112.992 244.313 110.881C243.971 108.769 243.462 106.612 242.171 104.918C240.88 103.224 238.593 102.108 236.565 102.769C235.887 103.031 235.269 103.427 234.747 103.934C234.225 104.44 233.81 105.046 233.527 105.716C232.965 107.057 232.582 108.467 232.388 109.908C231.441 115.068 230.327 120.193 229.046 125.282C229.01 125.492 228.924 125.69 228.795 125.859C228.592 126.059 228.321 126.176 228.035 126.186C226.334 126.406 224.701 125.221 222.992 125.343C220.888 125.495 219.346 127.53 217.272 127.865C215.95 127.983 214.623 127.689 213.475 127.021C212.947 126.794 212.473 126.458 212.085 126.034C211.907 126.288 211.789 126.58 211.741 126.887C211.692 127.193 211.713 127.507 211.804 127.804C212.138 128.511 212.739 129.057 213.475 129.323C214.623 129.99 215.95 130.285 217.272 130.166C219.346 129.832 220.888 127.796 222.992 127.644C224.701 127.523 226.334 128.708 228.035 128.487C228.321 128.477 228.592 128.361 228.795 128.161C228.924 127.991 229.01 127.793 229.046 127.583C230.322 122.52 231.436 117.395 232.388 112.21C232.582 110.768 232.965 109.359 233.527 108.017C233.81 107.347 234.225 106.741 234.747 106.235C235.269 105.729 235.887 105.333 236.565 105.07C238.593 104.409 240.872 105.526 242.171 107.22C243.47 108.913 243.963 111.078 244.313 113.182C244.662 115.286 244.882 117.451 245.741 119.403C246.002 120.127 246.486 120.749 247.123 121.18C248.262 121.841 249.797 121.317 250.67 120.33C251.469 119.272 251.992 118.032 252.189 116.722C252.389 115.414 252.824 114.153 253.473 113C254.673 111.207 256.868 110.402 258.965 109.886C261.061 109.369 263.271 109.027 265.041 107.774C266.434 106.652 267.569 105.242 268.368 103.642C269.492 101.69 270.54 99.5633 270.449 97.3074C270.434 97.0173 270.404 96.7283 270.358 96.4415C269.992 98.18 269.318 99.839 268.368 101.341Z" fill="black"/>
</g>
<path opacity="0.1" d="M270.48 101.568C272.427 105.032 273.582 108.884 273.86 112.848C267.092 109.05 260.727 104.88 257.514 103.429C251.916 100.9 230.982 101.28 223.113 101.515C223.937 100.045 224.898 98.6562 225.985 97.3681C227.783 95.2324 229.896 93.3832 232.251 91.8841C235.37 89.9046 238.86 88.5819 242.508 87.997C246.155 87.4121 249.884 87.5772 253.465 88.4822C257.047 89.3872 260.407 91.0131 263.338 93.2606C266.27 95.508 268.713 98.3297 270.518 101.553L270.48 101.568Z" fill="black"/>
<path opacity="0.1" d="M294.634 119.669C290.98 120.793 285.018 118.621 278.835 115.506C277.979 114.418 277.199 113.27 276.503 112.073L297.36 116.008C298.743 116.95 299.092 118.294 294.634 119.669Z" fill="black"/>
<path d="M248.399 75.2345C248.399 75.2345 228.461 74.0952 222.855 84.9189L221.951 94.5122L220.432 94.3451L220.128 100.87C220.128 100.87 250.602 99.5405 257.537 102.67C264.472 105.799 286.02 121.568 294.656 118.909C303.293 116.251 293.897 113.782 293.897 113.782C293.897 113.782 282.01 108.746 282.01 104.797C282.01 100.847 279.063 79.9818 248.399 75.2345Z" fill="#444053"/>
<path opacity="0.1" d="M209.943 430.861C209.943 430.861 222.665 443.204 228.172 442.254C228.172 442.254 212.601 440.925 209.943 430.861Z" fill="black"/>
<path opacity="0.1" d="M207.284 436.58C207.284 436.58 208.424 442.93 211.462 442.307C214.5 441.685 207.284 436.58 207.284 436.58Z" fill="black"/>
<path opacity="0.1" d="M227.223 542.706C227.223 542.706 209.16 556.758 212.206 557.138C215.252 557.518 227.223 542.706 227.223 542.706Z" fill="black"/>
<path d="M251.384 263.818L309.87 254.301V309.673L254.301 306.764L251.384 263.818Z" fill="white"/>
<path opacity="0.05" d="M251.384 263.818L309.87 254.301V309.673L254.301 306.764L251.384 263.818Z" fill="black"/>
<path d="M309.87 254.301L380.008 259.55L376.127 307.736L309.87 309.673V254.301Z" fill="white"/>
<path opacity="0.1" d="M309.87 254.301L380.008 259.55L376.127 307.736L309.87 309.673V254.301Z" fill="black"/>
<path d="M331.434 237.401L309.87 254.301L380.008 259.55L391.47 242.254L331.434 237.401Z" fill="white"/>
<path d="M230.208 245.361L282.861 238.95L309.87 254.301L251.384 263.818L230.208 245.361Z" fill="white"/>
<path d="M322.692 268.68V344.385L295.294 341.575L283.377 340.359L279.746 339.979L267.836 338.757L251.384 337.07V263.818L309.863 267.798L322.692 268.68Z" fill="white"/>
<path d="M380.008 259.55V333.379L358.049 337.594L347.37 339.645L322.692 344.385V268.68L380.008 259.55Z" fill="white"/>
<path opacity="0.05" d="M380.008 259.55V333.379L358.049 337.594L347.37 339.645L322.692 344.385V268.68L380.008 259.55Z" fill="black"/>
<path d="M230.208 279.754L251.384 263.818L322.692 268.68L312.195 286.362L230.208 279.754Z" fill="white"/>
<path opacity="0.1" d="M230.208 279.754L251.384 263.818L322.692 268.68L312.195 286.362L230.208 279.754Z" fill="white"/>
<path d="M380.008 259.55L322.692 268.679L341.347 285.39L402.742 275.09L380.008 259.55Z" fill="white"/>
<path opacity="0.1" d="M380.008 259.55L322.692 268.679L341.347 285.39L402.742 275.09L380.008 259.55Z" fill="white"/>
<path opacity="0.1" d="M358.049 337.594L347.37 339.645V323.869L357.373 321.347L358.049 337.594Z" fill="white"/>
<path opacity="0.1" d="M295.294 331.138V341.575L283.377 340.359V331.138H295.294Z" fill="white"/>
<path opacity="0.1" d="M279.746 334.427V339.979L267.836 338.757V334.427H279.746Z" fill="white"/>
<path opacity="0.1" d="M315.522 325.601C307.356 336.045 280.392 328.829 280.392 328.829L260.355 307.926L257.635 305.093L262.952 295.219C262.952 295.219 264.472 295.72 267.008 296.601C280.438 301.295 322.396 316.813 315.522 325.601Z" fill="black"/>
<path d="M314.762 324.082C306.597 334.526 279.632 327.31 279.632 327.31L259.595 306.407L256.876 303.574L262.193 293.699C262.193 293.699 263.712 294.201 266.249 295.082C279.678 299.776 321.636 315.294 314.762 324.082Z" fill="#EFB7B9"/>
<path opacity="0.1" d="M266.218 295.082C265.109 298.272 262.292 302.996 259.565 306.407L256.845 303.574L262.162 293.699C262.162 293.699 263.689 294.201 266.218 295.082Z" fill="black"/>
<path d="M199.878 176.955C199.878 176.955 179.94 184.551 179.75 205.818C179.705 219.523 180.466 233.219 182.029 246.835C182.029 246.835 176.332 278.546 192.473 287.661C208.613 296.776 223.615 304.371 223.615 304.371C223.615 304.371 249.402 308.549 252.569 309.878C255.737 311.207 266.743 294.117 265.034 291.269C263.325 288.42 239.847 281.395 237.059 276.647C234.271 271.9 227.405 268.702 227.405 268.702C227.405 268.702 220.402 263.925 220.121 259.937C219.84 255.949 221.906 253.101 222.491 251.392C223.075 249.683 225.195 232.973 225.195 232.973C225.195 232.973 236.527 173.689 199.878 176.955Z" fill="#DCE6F2"/>
<path opacity="0.1" d="M208.993 247.366C208.993 247.366 182.029 250.404 184.118 259.899C184.118 259.899 194.364 250.321 208.993 247.366Z" fill="black"/>
<path opacity="0.1" d="M208.993 251.164C208.993 251.164 193.688 262.368 196.498 263.127C199.309 263.887 208.993 251.164 208.993 251.164Z" fill="black"/>
<path opacity="0.1" d="M215.829 255.721C215.829 255.721 211.462 263.575 213.93 263.165C216.399 262.755 215.829 255.721 215.829 255.721Z" fill="black"/>
<path d="M496.578 85.367C496.578 85.367 467.715 83.6276 471.087 103.878C471.087 103.878 470.411 107.455 473.655 109.081C473.655 109.081 473.708 107.561 476.617 108.086C477.653 108.26 478.706 108.311 479.754 108.237C481.174 108.143 482.524 107.585 483.597 106.65C483.597 106.65 491.717 103.3 494.877 90.0231C494.877 90.0231 497.216 87.1216 497.155 86.3773L492.279 88.466C492.279 88.466 493.942 91.9828 492.628 94.9071C492.628 94.9071 492.477 88.5952 491.535 88.7395C491.345 88.7395 489.005 89.9624 489.005 89.9624C489.005 89.9624 491.869 96.0844 489.704 100.543C489.704 100.543 490.524 92.993 488.109 90.4029L484.676 92.4082C484.676 92.4082 488.026 98.7353 485.754 103.9C485.754 103.9 486.339 95.9781 483.954 92.8943L480.84 95.3173C480.84 95.3173 483.992 101.561 482.071 105.845C482.071 105.845 481.82 96.6237 480.164 95.9249C480.164 95.9249 477.445 98.3251 477.035 99.3126C477.035 99.3126 479.184 103.87 477.847 106.232C477.847 106.232 477.027 100.087 476.328 100.057C476.328 100.057 473.617 104.128 473.336 106.893C473.467 104.315 474.271 101.817 475.667 99.6468C474.105 99.9425 472.663 100.69 471.52 101.796C471.52 101.796 471.938 98.9176 476.336 98.6669C476.336 98.6669 478.615 95.5755 479.177 95.3856C479.177 95.3856 474.802 95.0211 472.151 96.1984C472.151 96.1984 474.483 93.4867 479.982 94.6792L483.02 92.1727C483.02 92.1727 477.263 91.4131 474.817 92.2563C474.817 92.2563 477.627 89.856 483.848 91.603L487.19 89.6054C487.19 89.6054 482.283 88.542 479.359 88.9294C479.359 88.9294 482.443 87.2659 488.17 89.0661L490.562 87.9951C490.562 87.9951 486.962 87.2887 485.914 87.1748C484.866 87.0609 484.805 86.7722 484.805 86.7722C487.083 86.3931 489.421 86.6562 491.557 87.5318C491.557 87.5318 496.685 85.6861 496.578 85.367Z" fill="white"/>
<path opacity="0.1" d="M584.277 186.647C584.277 186.647 555.414 184.908 558.786 205.157C558.786 205.157 558.11 208.735 561.354 210.36C561.354 210.36 561.407 208.841 564.323 209.365C565.359 209.54 566.412 209.591 567.46 209.517C568.864 209.416 570.197 208.861 571.258 207.937C571.258 207.937 579.385 204.58 582.545 191.303C582.545 191.303 584.877 188.409 584.786 187.665L579.91 189.746C579.91 189.746 581.573 193.263 580.267 196.187C580.267 196.187 580.107 189.875 579.173 190.019C578.983 190.019 576.636 191.242 576.636 191.242C576.636 191.242 579.507 197.372 577.342 201.823C577.342 201.823 578.163 194.273 575.74 191.683L572.344 193.665C572.344 193.665 575.694 199.992 573.423 205.157C573.423 205.157 574.008 197.235 571.623 194.151L568.516 196.582C568.516 196.582 571.661 202.818 569.747 207.102C569.747 207.102 569.496 197.881 567.84 197.182C567.84 197.182 565.121 199.582 564.703 200.57C564.703 200.57 566.86 205.127 565.524 207.489C565.524 207.489 564.703 201.344 564.004 201.314C564.004 201.314 561.293 205.385 561.012 208.15C561.147 205.572 561.954 203.074 563.351 200.904C561.786 201.2 560.342 201.947 559.196 203.053C559.196 203.053 559.622 200.175 564.02 199.924C564.02 199.924 566.26 196.833 566.86 196.643C566.86 196.643 562.485 196.278 559.834 197.455C559.834 197.455 562.166 194.744 567.658 195.974L570.696 193.468C570.696 193.468 564.931 192.708 562.493 193.551C562.493 193.551 565.303 191.151 571.524 192.898L574.866 190.9C574.866 190.9 569.952 189.845 567.027 190.224C567.027 190.224 570.119 188.561 575.846 190.361L578.239 189.29C578.239 189.29 574.638 188.584 573.582 188.47C572.527 188.356 572.474 188.067 572.474 188.067C574.754 187.688 577.094 187.951 579.234 188.827C579.234 188.827 584.368 186.966 584.277 186.647Z" fill="white"/>
<path opacity="0.1" d="M408.932 168.668C408.932 168.668 415.579 140.496 395.04 140.397C395.04 140.397 391.63 139.121 389.48 142.038C389.48 142.038 390.946 142.349 389.951 145.129C389.607 146.112 389.377 147.132 389.267 148.168C389.12 149.579 389.438 151.001 390.171 152.216C390.171 152.216 392.093 160.799 404.603 166.177C404.603 166.177 407.064 168.972 407.808 169.002L406.593 163.845C406.593 163.845 402.841 164.886 400.182 163.085C400.182 163.085 406.433 164.004 406.441 163.085C406.441 162.895 405.682 160.381 405.682 160.381C405.682 160.381 399.157 162.159 395.131 159.265C395.131 159.265 402.431 161.361 405.4 159.424L404.033 155.687C404.033 155.687 397.197 157.913 392.518 154.791C392.518 154.791 400.228 156.72 403.676 154.897L401.815 151.419C401.815 151.419 395.131 153.454 391.235 150.834C391.235 150.834 400.349 152.155 401.337 150.651C401.337 150.651 399.438 147.56 398.534 146.983C398.534 146.983 393.703 148.335 391.576 146.61C391.576 146.61 397.767 146.846 397.911 146.193C397.911 146.193 394.364 142.828 391.66 142.068C394.18 142.642 396.507 143.862 398.412 145.608C398.385 144.016 397.894 142.467 397 141.149C397 141.149 399.765 142.061 399.278 146.466C399.278 146.466 401.937 149.201 402.02 149.823C402.02 149.823 403.122 145.577 402.415 142.76C402.415 142.76 404.694 145.524 402.545 150.727L404.489 154.183C404.489 154.183 406.251 148.639 405.803 146.086C405.803 146.086 407.694 149.261 404.907 155.095L406.312 158.733C406.312 158.733 408.188 154.069 408.31 151.137C408.31 151.137 409.426 154.464 406.669 159.804L407.322 162.341C407.322 162.341 408.629 158.915 408.917 157.898C409.206 156.88 409.502 156.872 409.502 156.872C409.491 159.183 408.836 161.445 407.611 163.404C407.611 163.404 408.606 168.706 408.932 168.668Z" fill="white"/>
<path opacity="0.1" d="M345.722 178.269C345.722 178.269 322.54 160.928 314.253 179.712C314.253 179.712 311.724 182.333 313.539 185.47C313.539 185.47 314.405 184.247 316.577 186.275C317.347 186.991 318.198 187.613 319.114 188.128C320.355 188.819 321.787 189.086 323.193 188.888C323.193 188.888 331.822 190.551 341.757 181.201C341.757 181.201 345.304 180.062 345.638 179.393L340.405 178.474C340.405 178.474 339.858 182.325 337.161 184.049C337.161 184.049 340.496 178.687 339.63 178.299C339.455 178.216 336.842 177.92 336.842 177.92C336.842 177.92 335.87 184.619 331.617 187.148C331.617 187.148 336.455 181.292 335.855 177.798L331.883 177.585C331.883 177.585 331.207 184.718 326.467 187.786C326.467 187.786 331.305 181.49 331.024 177.601L327.09 177.92C327.09 177.92 326.292 184.854 322.335 187.376C322.335 187.376 327.188 179.537 326.193 178.049C326.193 178.049 322.601 178.558 321.712 179.15C321.712 179.15 321.021 184.118 318.59 185.378C318.59 185.378 321.287 179.796 320.74 179.408C320.74 179.408 316.236 181.315 314.466 183.487C315.997 181.407 318.044 179.763 320.406 178.717C318.936 178.106 317.321 177.938 315.757 178.231C315.757 178.231 317.686 176.059 321.499 178.269C321.499 178.269 325.069 176.925 325.677 177.092C325.677 177.092 322.221 174.38 319.357 173.909C319.357 173.909 322.806 172.922 326.718 176.947L330.66 176.545C330.66 176.545 326.277 172.747 323.763 172.109C323.763 172.109 327.432 171.646 331.662 176.522L335.551 176.697C335.551 176.697 332.034 173.112 329.384 171.82C329.384 171.82 332.87 172.124 336.668 176.78L339.258 177.198C339.258 177.198 336.637 174.631 335.817 173.962C334.997 173.294 335.111 173.013 335.111 173.013C337.224 173.949 339.036 175.453 340.344 177.358C340.344 177.358 345.623 178.58 345.722 178.269Z" fill="white"/>
<path opacity="0.1" d="M422.901 17.1585C422.901 17.1585 399.719 -0.18992 391.432 18.6016C391.432 18.6016 388.903 21.2221 390.718 24.3591C390.718 24.3591 391.584 23.1362 393.756 25.1642C394.53 25.8764 395.384 26.4958 396.301 27.01C397.541 27.7013 398.974 27.968 400.38 27.7695C400.38 27.7695 409.008 29.433 418.943 20.0752C418.943 20.0752 422.491 18.9434 422.817 18.2674L417.584 17.3635C417.584 17.3635 417.045 21.2145 414.341 22.9387C414.341 22.9387 417.683 17.5762 416.817 17.1888C416.642 17.1053 414.029 16.8091 414.029 16.8091C414.029 16.8091 413.027 23.5236 408.773 26.0377C408.773 26.0377 413.604 20.1815 413.011 16.6875L409.039 16.4749C409.039 16.4749 408.355 23.6071 403.623 26.6682C403.623 26.6682 408.462 20.3714 408.18 16.4824L404.254 16.8015C404.254 16.8015 403.448 23.7438 399.491 26.2656C399.491 26.2656 404.352 18.4269 403.357 16.9382C403.357 16.9382 399.765 17.4471 398.876 18.0395C398.876 18.0395 398.185 23.0071 395.754 24.2679C395.754 24.2679 398.451 18.6852 397.904 18.2902C397.904 18.2902 393.399 20.2043 391.63 22.3766C393.158 20.2945 395.206 18.6497 397.569 17.6066C396.099 16.9914 394.479 16.8223 392.913 17.1205C392.913 17.1205 394.85 14.9481 398.663 17.1585C398.663 17.1585 402.233 15.8064 402.841 15.9811C402.841 15.9811 399.385 13.2695 396.521 12.791C396.521 12.791 399.962 11.8111 403.874 15.8292L407.816 15.4267C407.816 15.4267 403.441 11.6288 400.919 10.9832C400.919 10.9832 404.588 10.5275 408.826 15.4039L412.715 15.571C412.715 15.571 409.198 11.9858 406.54 10.7022C406.54 10.7022 410.034 11.006 413.832 15.6621L416.414 16.0799C416.414 16.0799 413.786 13.5429 412.966 12.8897C412.145 12.2365 412.259 11.9479 412.259 11.9479C414.373 12.8826 416.185 14.3869 417.493 16.2926C417.493 16.2926 422.772 17.4471 422.901 17.1585Z" fill="white"/>
<path opacity="0.1" d="M511.481 39.1326C511.481 39.1326 502.214 11.7048 484.737 22.483C484.737 22.483 481.167 23.2426 480.886 26.8201C480.886 26.8201 482.291 26.3036 482.914 29.1899C483.145 30.2166 483.494 31.2132 483.954 32.1598C484.582 33.4338 485.605 34.4703 486.871 35.1145C486.871 35.1145 493.039 41.3809 506.528 39.3073C506.528 39.3073 510.091 40.3859 510.744 40.0137L506.946 36.2842C506.946 36.2842 504.318 39.1478 501.113 39.0338C501.113 39.0338 506.908 36.5121 506.43 35.6994C506.331 35.5399 504.349 33.8157 504.349 33.8157C504.349 33.8157 499.746 38.7756 494.808 38.449C494.808 38.449 502.108 36.3678 503.597 33.1321L500.452 30.709C500.452 30.709 495.849 36.1931 490.206 36.026C490.206 36.026 497.801 33.5878 499.723 30.2153L496.305 28.2481C496.305 28.2481 491.747 33.5118 487.023 33.3447C487.023 33.3447 495.469 29.6457 495.492 27.8531C495.492 27.8531 492.249 26.2352 491.178 26.22C491.178 26.22 487.79 29.9191 485.101 29.5849C485.101 29.5849 490.479 26.5087 490.251 25.8782C490.251 25.8782 485.466 24.8984 482.769 25.6883C485.208 24.8392 487.827 24.6428 490.365 25.1187C489.498 23.7811 488.26 22.7252 486.803 22.0804C486.803 22.0804 489.628 21.3892 491.52 25.3693C491.52 25.3693 495.226 26.2884 495.621 26.7669C495.621 26.7669 494.315 22.5817 492.226 20.5613C492.226 20.5613 495.621 21.7082 496.548 27.2606L500.027 29.1595C500.027 29.1595 498.591 23.5312 496.859 21.5639C496.859 21.5639 500.148 23.2654 500.862 29.6836L503.976 32.0307C503.976 32.0307 503.11 27.0783 501.652 24.511C501.652 24.511 504.356 26.7441 504.842 32.7371L506.734 34.5448C506.734 34.5448 506.035 30.9445 505.746 29.9267C505.458 28.9089 505.693 28.8405 505.693 28.8405C506.9 30.8109 507.539 33.077 507.539 35.3879C507.539 35.3879 511.215 39.3301 511.481 39.1326Z" fill="white"/>
<path opacity="0.1" d="M451.005 40.4846C451.005 40.4846 422.217 37.2793 424.595 57.7039C424.595 57.7039 423.736 61.2434 426.873 63.0208C426.873 63.0208 427.002 61.5017 429.912 62.1853C430.94 62.4065 431.989 62.511 433.041 62.4967C434.461 62.471 435.835 61.9831 436.953 61.1067C436.953 61.1067 445.24 58.1672 449.106 45.0648C449.106 45.0648 451.582 42.2924 451.529 41.5404L446.554 43.3785C446.554 43.3785 448.073 46.9713 446.554 49.8272C446.554 49.8272 446.713 43.5153 445.794 43.614C445.604 43.614 443.204 44.7078 443.204 44.7078C443.204 44.7078 445.756 50.9742 443.371 55.3416C443.371 55.3416 444.571 47.8372 442.285 45.1331L438.753 46.9561C438.753 46.9561 441.791 53.4503 439.247 58.4938C439.247 58.4938 440.234 50.6096 438.009 47.4118L434.78 49.6905C434.78 49.6905 437.606 56.0784 435.472 60.2636C435.472 60.2636 435.692 51.0425 434.074 50.2602C434.074 50.2602 431.233 52.5389 430.77 53.4807C430.77 53.4807 432.692 58.114 431.241 60.4307C431.241 60.4307 430.732 54.2555 430.063 54.1947C430.063 54.1947 427.147 58.1216 426.721 60.894C426.985 58.3237 427.917 55.8672 429.425 53.7693C427.849 53.9872 426.371 54.6603 425.172 55.7062C425.172 55.7062 425.734 52.8579 430.139 52.8275C430.139 52.8275 432.532 49.8576 433.178 49.6981C433.178 49.6981 428.825 49.1132 426.114 50.1538C426.114 50.1538 428.582 47.5561 434.006 49.0677L437.203 46.7206C437.203 46.7206 431.423 45.5509 428.977 46.3105C428.977 46.3105 431.909 44.0318 438.031 46.1206L441.472 44.29C441.472 44.29 436.619 42.9836 433.679 43.219C433.679 43.219 436.846 41.6999 442.475 43.8039L444.921 42.8544C444.921 42.8544 441.358 41.9658 440.31 41.7987C439.262 41.6316 439.224 41.3429 439.224 41.3429C441.52 41.0795 443.844 41.4581 445.938 42.4367C445.938 42.4367 451.058 40.8036 451.005 40.4846Z" fill="white"/>
<path opacity="0.1" d="M702.875 263.925C702.875 263.925 674.103 260.719 676.48 281.121C676.48 281.121 675.622 284.661 678.759 286.438C678.759 286.438 678.888 284.919 681.797 285.595C682.824 285.824 683.875 285.928 684.927 285.906C686.348 285.885 687.722 285.396 688.838 284.516C688.838 284.516 697.125 281.577 700.953 268.482C700.953 268.482 703.43 265.702 703.376 264.958L698.401 266.788C698.401 266.788 699.92 270.389 698.401 273.244C698.401 273.244 698.561 266.925 697.642 267.031C697.452 267.031 695.052 268.117 695.052 268.117C695.052 268.117 697.604 274.384 695.219 278.751C695.219 278.751 696.419 271.254 694.132 268.543L690.6 270.373C690.6 270.373 693.639 276.868 691.102 281.911C691.102 281.911 692.082 274.027 689.856 270.821L686.628 273.1C686.628 273.1 689.454 279.488 687.319 283.666C687.319 283.666 687.539 274.445 685.922 273.67C685.922 273.67 683.088 275.949 682.617 276.89C682.617 276.89 684.547 281.524 683.088 283.84C683.088 283.84 682.58 277.665 681.911 277.604C681.911 277.604 678.994 281.531 678.569 284.304C678.832 281.733 679.765 279.277 681.273 277.179C679.696 277.393 678.216 278.067 677.02 279.116C677.02 279.116 677.582 276.26 681.987 276.23C681.987 276.23 684.387 273.26 685.025 273.108C685.025 273.108 680.673 272.515 677.961 273.556C677.961 273.556 680.43 270.966 685.861 272.477L689.051 270.13C689.051 270.13 683.339 269.052 680.855 269.796C680.855 269.796 683.787 267.517 689.909 269.599L693.35 267.776C693.35 267.776 688.496 266.469 685.557 266.705C685.557 266.705 688.724 265.186 694.353 267.29L696.799 266.333C696.799 266.333 693.236 265.444 692.188 265.284C691.14 265.125 691.102 264.829 691.102 264.829C693.397 264.56 695.722 264.936 697.816 265.915C697.816 265.915 702.951 264.251 702.875 263.925Z" fill="white"/>
<path opacity="0.1" d="M746.861 290.798C746.861 290.798 718.089 287.6 720.466 307.994C720.466 307.994 719.616 311.534 722.745 313.311C722.745 313.311 722.874 311.792 725.783 312.476C726.808 312.699 727.856 312.801 728.905 312.78C730.319 312.751 731.686 312.266 732.802 311.397C732.802 311.397 741.081 308.458 744.909 295.355C744.909 295.355 747.393 292.583 747.332 291.831L742.357 293.662C742.357 293.662 743.876 297.262 742.357 300.118C742.357 300.118 742.516 293.806 741.597 293.905C741.407 293.905 739.007 294.991 739.007 294.991C739.007 294.991 741.559 301.257 739.174 305.625C739.174 305.625 740.374 298.128 738.088 295.424L734.556 297.247C734.556 297.247 737.594 303.741 735.057 308.784C735.057 308.784 736.037 300.9 733.812 297.702L730.584 299.981C730.584 299.981 733.409 306.369 731.282 310.554C731.282 310.554 731.495 301.325 729.877 300.551C729.877 300.551 727.044 302.829 726.573 303.771C726.573 303.771 728.502 308.405 727.044 310.721C727.044 310.721 726.535 304.546 725.867 304.485C725.867 304.485 722.95 308.412 722.532 311.185C722.795 308.615 723.725 306.159 725.229 304.06C723.653 304.278 722.174 304.951 720.975 305.997C720.975 305.997 721.545 303.141 725.95 303.118C725.95 303.118 728.343 300.148 728.989 299.989C728.989 299.989 724.636 299.404 721.925 300.444C721.925 300.444 724.393 297.847 729.824 299.358L733.014 297.011C733.014 297.011 727.302 295.933 724.819 296.677C724.819 296.677 727.75 294.398 733.873 296.487L737.313 294.657C737.313 294.657 732.46 293.35 729.52 293.586C729.52 293.586 732.688 292.066 738.316 294.17L740.762 293.221C740.762 293.221 737.199 292.332 736.159 292.165C735.118 291.998 735.065 291.709 735.065 291.709C737.361 291.446 739.686 291.825 741.779 292.803C741.779 292.803 746.937 291.125 746.861 290.798Z" fill="white"/>
<path opacity="0.1" d="M649.204 64.4412C649.204 64.4412 626.022 47.1004 617.736 65.8843C617.736 65.8843 615.206 68.5048 617.022 71.6418C617.022 71.6418 617.888 70.4189 620.06 72.4469C620.829 73.1628 621.681 73.7849 622.597 74.3003C623.838 74.9905 625.27 75.2572 626.676 75.0598C626.676 75.0598 635.304 76.7233 645.247 67.3731C645.247 67.3731 648.787 66.2337 649.121 65.5653L643.903 64.6235C643.903 64.6235 643.356 68.4744 640.659 70.1986C640.659 70.1986 643.994 64.8361 643.128 64.4488C642.953 64.3652 640.348 64.069 640.348 64.069C640.348 64.069 639.368 70.7683 635.114 73.2976C635.114 73.2976 639.953 67.4414 639.353 63.9474L635.38 63.7348C635.38 63.7348 634.704 70.867 629.965 73.9357C629.965 73.9357 634.811 67.6389 634.522 63.75L630.587 64.069C630.587 64.069 629.828 71.0038 625.833 73.5255C625.833 73.5255 630.694 65.6868 629.691 64.1981C629.691 64.1981 626.098 64.707 625.21 65.2995C625.21 65.2995 624.526 70.267 622.096 71.5279C622.096 71.5279 624.784 65.9451 624.237 65.5577C624.237 65.5577 619.733 67.4642 617.964 69.6366C619.494 67.5566 621.542 65.9124 623.903 64.8665C622.434 64.2558 620.819 64.0869 619.255 64.3804C619.255 64.3804 621.192 62.208 625.005 64.4184C625.005 64.4184 628.567 63.0739 629.175 63.241C629.175 63.241 625.719 60.5294 622.855 60.0585C622.855 60.0585 626.304 59.0711 630.215 63.0967L634.157 62.6942C634.157 62.6942 629.782 58.8964 627.261 58.2583C627.261 58.2583 630.929 57.795 635.16 62.6714L639.057 62.8461C639.057 62.8461 635.532 59.261 632.881 57.9697C632.881 57.9697 636.375 58.2735 640.165 62.9296L642.756 63.3474C642.756 63.3474 640.135 60.7801 639.315 60.1117C638.494 59.4432 638.616 59.223 638.616 59.223C640.726 60.1602 642.535 61.6642 643.842 63.5677C643.842 63.5677 649.106 64.7526 649.204 64.4412Z" fill="white"/>
<path opacity="0.1" d="M667.115 189.632C667.115 189.632 659.124 161.809 641.153 171.797C641.153 171.797 637.553 172.352 637.104 175.952C637.104 175.952 638.532 175.504 639.026 178.413C639.209 179.458 639.515 180.478 639.938 181.452C640.501 182.76 641.477 183.849 642.718 184.551C642.718 184.551 648.597 191.083 662.162 189.624C662.162 189.624 665.671 190.855 666.34 190.521L662.747 186.617C662.747 186.617 659.99 189.366 656.8 189.108C656.8 189.108 662.694 186.829 662.238 186.016C662.147 185.849 660.248 184.034 660.248 184.034C660.248 184.034 655.433 188.789 650.511 188.234C650.511 188.234 657.901 186.487 659.527 183.343L656.488 180.775C656.488 180.775 651.642 186.047 646.014 185.637C646.014 185.637 653.67 183.533 655.782 180.259L652.455 178.14C652.455 178.14 647.632 183.191 642.953 182.811C642.953 182.811 651.559 179.492 651.665 177.707C651.665 177.707 648.49 175.945 647.419 175.884C647.419 175.884 643.872 179.423 641.176 178.968C641.176 178.968 646.69 176.135 646.493 175.497C646.493 175.497 641.753 174.304 639.026 174.965C641.496 174.233 644.114 174.157 646.622 174.745C645.818 173.37 644.63 172.261 643.204 171.554C643.204 171.554 646.06 170.985 647.761 175.048C647.761 175.048 651.415 176.127 651.794 176.628C651.794 176.628 650.678 172.382 648.68 170.278C648.68 170.278 652.022 171.57 652.698 177.16L656.086 179.218C656.086 179.218 654.901 173.522 653.26 171.516C653.26 171.516 656.466 173.362 656.899 179.803L659.937 182.287C659.937 182.287 659.291 177.304 657.954 174.691C657.954 174.691 660.56 177.046 660.772 183.047L662.58 184.945C662.58 184.945 662.048 181.315 661.82 180.282C661.593 179.249 661.82 179.104 661.82 179.104C662.944 181.125 663.484 183.418 663.378 185.728C663.378 185.728 666.841 189.814 667.115 189.632Z" fill="white"/>
<path opacity="0.1" d="M489.059 252.326C489.059 252.326 473.541 227.883 459.132 242.513C459.132 242.513 455.835 244.032 456.413 247.64C456.413 247.64 457.666 246.804 458.957 249.463C459.421 250.405 459.997 251.287 460.674 252.091C461.579 253.187 462.82 253.956 464.206 254.278C464.206 254.278 471.687 258.896 484.296 253.671C484.296 253.671 488.01 253.868 488.557 253.359L484 250.625C484 250.625 482.124 254.043 478.987 254.688C478.987 254.688 484.015 250.891 483.339 250.192C483.21 250.055 480.871 248.855 480.871 248.855C480.871 248.855 477.582 254.764 472.705 255.623C472.705 255.623 479.306 251.863 479.989 248.384L476.351 246.781C476.351 246.781 473.184 253.2 467.669 254.377C467.669 254.377 474.429 250.207 475.531 246.47L471.733 245.376C471.733 245.376 468.528 251.582 463.932 252.531C463.932 252.531 471.254 246.926 470.852 245.179C470.852 245.179 467.312 244.381 466.294 244.624C466.294 244.624 463.887 249.022 461.167 249.341C461.167 249.341 465.664 245.072 465.292 244.51C465.292 244.51 460.408 244.7 457.977 246.105C460.145 244.701 462.644 243.889 465.223 243.751C464.069 242.658 462.619 241.926 461.053 241.647C461.053 241.647 463.628 240.302 466.37 243.72C466.37 243.72 470.168 243.72 470.692 244.1C470.692 244.1 468.414 240.302 465.915 238.882C465.915 238.882 469.485 239.186 471.703 244.358L475.538 245.376C475.538 245.376 472.796 240.249 470.662 238.783C470.662 238.783 474.255 239.649 476.48 245.718L480.065 247.237C480.065 247.237 478.045 242.642 476.017 240.492C476.017 240.492 479.177 242.011 481.068 247.716L483.347 249.03C483.347 249.03 481.828 245.695 481.288 244.776C480.749 243.857 480.962 243.644 480.962 243.644C482.605 245.268 483.765 247.317 484.311 249.561C484.311 249.561 488.853 252.584 489.059 252.326Z" fill="white"/>
<path d="M591.045 127.439C591.045 127.439 576.287 102.533 561.422 116.707C561.422 116.707 558.08 118.15 558.551 121.75C558.551 121.75 559.819 120.945 561.035 123.641C561.469 124.6 562.017 125.503 562.668 126.33C563.54 127.45 564.757 128.251 566.131 128.609C566.131 128.609 573.461 133.455 586.229 128.609C586.229 128.609 589.936 128.92 590.498 128.427L586.039 125.555C586.039 125.555 584.064 128.905 580.905 129.46C580.905 129.46 586.047 125.791 585.401 125.1C585.265 124.955 582.971 123.679 582.971 123.679C582.971 123.679 579.499 129.49 574.616 130.196C574.616 130.196 581.33 126.642 582.112 123.193L578.527 121.507C578.527 121.507 575.162 127.834 569.61 128.844C569.61 128.844 576.499 124.887 577.715 121.188L573.962 119.973C573.962 119.973 570.559 126.049 565.941 126.885C565.941 126.885 573.431 121.507 573.081 119.752C573.081 119.752 569.572 118.841 568.524 119.054C568.524 119.054 565.979 123.376 563.253 123.611C563.253 123.611 567.878 119.494 567.529 118.917C567.529 118.917 562.637 118.955 560.169 120.284C562.38 118.95 564.901 118.217 567.483 118.157C566.361 117.028 564.932 116.252 563.374 115.924C563.374 115.924 565.995 114.656 568.691 118.157C568.691 118.157 572.489 118.286 572.998 118.674C572.998 118.674 570.848 114.876 568.387 113.311C568.387 113.311 571.942 113.722 574 118.962L577.798 120.102C577.798 120.102 575.223 114.891 573.127 113.357C573.127 113.357 576.697 114.337 578.732 120.466L582.264 122.115C582.264 122.115 580.388 117.459 578.466 115.279C578.466 115.279 581.573 116.896 583.297 122.654L585.523 124.036C585.523 124.036 584.095 120.656 583.594 119.722C583.092 118.788 583.305 118.583 583.305 118.583C584.897 120.256 585.994 122.339 586.472 124.598C586.472 124.598 590.825 127.69 591.045 127.439Z" fill="white"/>
<path d="M497.672 179.811C497.672 179.811 498.431 150.872 478.326 154.95C478.326 154.95 474.726 154.396 473.206 157.692C473.206 157.692 474.726 157.692 474.3 160.617C474.161 161.66 474.146 162.715 474.255 163.761C474.392 165.181 474.992 166.515 475.964 167.559C475.964 167.559 479.587 175.565 492.963 178.284C492.963 178.284 495.933 180.525 496.677 180.403L494.398 175.603C494.398 175.603 490.942 177.38 487.972 176.173C487.972 176.173 494.277 175.8 494.102 174.874C494.102 174.684 492.796 172.375 492.796 172.375C492.796 172.375 486.765 175.451 482.245 173.431C482.245 173.431 489.841 174 492.325 171.501L490.205 168.136C490.205 168.136 483.992 171.691 478.751 169.595C478.751 169.595 486.689 169.914 489.697 167.43L487.167 164.392C487.167 164.392 481.038 167.749 476.693 165.972C476.693 165.972 485.899 165.417 486.567 163.739C486.567 163.739 484.076 161.103 483.073 160.7C483.073 160.7 478.622 162.979 476.191 161.749C476.191 161.749 482.268 160.731 482.306 160.055C482.306 160.055 478.151 157.48 475.348 157.29C477.933 157.336 480.46 158.059 482.678 159.386C482.332 157.834 481.54 156.416 480.399 155.307C480.399 155.307 483.293 155.634 483.688 160.017C483.688 160.017 486.856 162.159 487.061 162.751C487.061 162.751 487.281 158.368 486.013 155.756C486.013 155.756 488.808 157.996 487.76 163.526L490.365 166.519C490.365 166.519 490.957 160.731 490.008 158.323C490.008 158.323 492.499 161.05 490.965 167.324L493.069 170.597C493.069 170.597 493.965 165.653 493.487 162.744C493.487 162.744 495.249 165.782 493.639 171.562L494.793 173.917C494.793 173.917 495.378 170.294 495.454 169.238C495.53 168.182 495.819 168.114 495.819 168.114C496.276 170.379 496.094 172.728 495.294 174.897C495.294 174.897 497.338 179.91 497.672 179.811Z" fill="white"/>
<path opacity="0.1" d="M530.91 547.53C542.207 547.53 551.365 545.982 551.365 544.074C551.365 542.165 542.207 540.618 530.91 540.618C519.613 540.618 510.455 542.165 510.455 544.074C510.455 545.982 519.613 547.53 530.91 547.53Z" fill="white"/>
<path opacity="0.1" d="M456.344 600C467.641 600 476.799 598.453 476.799 596.544C476.799 594.635 467.641 593.088 456.344 593.088C445.047 593.088 435.889 594.635 435.889 596.544C435.889 598.453 445.047 600 456.344 600Z" fill="white"/>
<path opacity="0.1" d="M70.7455 573.119C82.0425 573.119 91.2005 571.572 91.2005 569.663C91.2005 567.754 82.0425 566.207 70.7455 566.207C59.4485 566.207 50.2905 567.754 50.2905 569.663C50.2905 571.572 59.4485 573.119 70.7455 573.119Z" fill="white"/>
<path opacity="0.1" d="M611.492 596.544C622.789 596.544 631.947 594.997 631.947 593.088C631.947 591.179 622.789 589.632 611.492 589.632C600.195 589.632 591.037 591.179 591.037 593.088C591.037 594.997 600.195 596.544 611.492 596.544Z" fill="white"/>
<path d="M632.79 554.404C649.658 554.404 663.332 552.091 663.332 549.239C663.332 546.386 649.658 544.073 632.79 544.073C615.922 544.073 602.248 546.386 602.248 549.239C602.248 552.091 615.922 554.404 632.79 554.404Z" fill="white"/>
<path d="M645.452 540.785C646.846 539.652 647.861 538.12 648.361 536.394C648.741 534.647 647.997 532.559 646.333 531.921C644.465 531.207 642.467 532.498 640.948 533.804C639.429 535.111 637.705 536.607 635.722 536.334C636.74 535.409 637.501 534.237 637.932 532.932C638.364 531.626 638.45 530.231 638.183 528.882C638.097 528.323 637.861 527.798 637.5 527.363C636.459 526.254 634.583 526.733 633.337 527.606C629.387 530.386 628.286 535.749 628.263 540.58C627.868 538.84 628.203 537.025 628.195 535.263C628.187 533.5 627.694 531.465 626.182 530.538C625.254 530.021 624.206 529.759 623.144 529.779C621.366 529.718 619.384 529.892 618.176 531.191C616.657 532.802 617.06 535.513 618.366 537.268C619.673 539.022 621.67 540.154 623.508 541.385C624.98 542.263 626.236 543.46 627.185 544.886C627.293 545.085 627.382 545.294 627.451 545.509H638.586C641.079 544.254 643.389 542.664 645.452 540.785Z" fill="white"/>
<path d="M57.0126 553.598C57.0126 553.598 68.6719 553.241 72.2039 550.735C75.7358 548.228 90.1523 545.243 91.0258 549.261C91.8993 553.279 108.556 569.23 95.3857 569.336C82.2149 569.443 64.7829 567.286 61.2738 565.144C57.7646 563.002 57.0126 553.598 57.0126 553.598Z" fill="#A8A8A8"/>
<path opacity="0.2" d="M95.6059 567.939C82.4351 568.045 65.0032 565.888 61.4941 563.746C58.8204 562.121 57.757 556.28 57.4 553.583H57.0126C57.0126 553.583 57.7722 562.994 61.2586 565.129C64.745 567.263 82.1997 569.428 95.3705 569.321C99.1683 569.321 100.482 567.939 100.414 565.934C99.8822 567.157 98.4315 567.916 95.6059 567.939Z" fill="black"/>
</g>
<defs>
<linearGradient id="paint0_linear_40_297" x1="169.374" y1="329.209" x2="406.456" y2="329.209" gradientUnits="userSpaceOnUse">
<stop stop-color="#808080" stop-opacity="0.25"/>
<stop offset="0.54" stop-color="#808080" stop-opacity="0.12"/>
<stop offset="1" stop-color="#808080" stop-opacity="0.1"/>
</linearGradient>
<clipPath id="clip0_40_297">
<rect width="766.807" height="600" fill="white"/>
</clipPath>
</defs>
</svg>
