<svg width="527" height="758" viewBox="0 0 527 758" fill="none" xmlns="http://www.w3.org/2000/svg">
<g filter="url(#filter0_b_14_222)">
<rect width="250" height="350" rx="16" transform="matrix(-0.866025 -0.5 -2.20305e-08 1 526.506 125)" fill="url(#paint0_linear_14_222)" fill-opacity="0.5"/>
</g>
<g clip-path="url(#clip0_14_222)">
<path d="M418.243 177.494C441.882 191.142 461.047 210.273 461.047 220.229L461.047 235.017C461.047 244.974 441.882 241.973 418.243 228.325C394.605 214.678 375.44 195.548 375.44 185.592L375.44 170.804C375.44 160.848 394.605 163.846 418.243 177.494Z" fill="#32509D"/>
<path d="M418.243 236.943C440.812 249.974 459.419 253.358 461.047 244.966C461.124 245.457 461.047 269.388 461.047 269.388C461.047 279.346 441.882 276.346 418.243 262.698C394.605 249.05 375.44 229.919 375.44 219.963C375.44 219.963 375.392 195.958 375.468 195.558C377.098 205.831 395.674 223.913 418.243 236.943Z" fill="#32509D"/>
<path d="M375.48 230.36C377.106 240.625 395.673 258.707 418.243 271.737C440.812 284.768 459.424 288.149 461.051 279.764L461.047 304.185C461.047 314.141 441.882 311.141 418.243 297.493C394.605 283.845 375.44 264.714 375.44 254.76L375.48 230.36Z" fill="#32509D"/>
</g>
<g filter="url(#filter1_b_14_222)">
<rect width="267.151" height="400" rx="16" transform="matrix(-0.866025 -0.5 -2.20305e-08 1 386.359 216.575)" fill="#32509D" fill-opacity="0.5"/>
<rect x="0.433013" y="-0.25" width="268.151" height="401" rx="16.5" transform="matrix(-0.866025 -0.5 -2.20305e-08 1 387.167 216.792)" stroke="url(#paint1_radial_14_222)"/>
<rect x="0.433013" y="-0.25" width="268.151" height="401" rx="16.5" transform="matrix(-0.866025 -0.5 -2.20305e-08 1 387.167 216.792)" stroke="url(#paint2_radial_14_222)"/>
<rect x="0.433013" y="-0.25" width="268.151" height="401" rx="16.5" transform="matrix(-0.866025 -0.5 -2.20305e-08 1 387.167 216.792)" stroke="url(#paint3_radial_14_222)"/>
</g>
<path fill-rule="evenodd" clip-rule="evenodd" d="M322.974 329.549L322.963 422.641C322.963 433.168 324.082 440.339 313.989 434.511C303.413 428.38 225.98 384.764 222.832 381.033C217.884 375.174 219.299 364.818 219.299 356.355L219.288 269.686C219.288 262.389 221.844 261.598 227.779 265.024L314.494 315.089C320.637 318.636 322.974 322.721 322.974 329.549Z" fill="#32509D"/>
<path fill-rule="evenodd" clip-rule="evenodd" d="M294.318 349.426L294.318 352.872L297.302 354.594C303.929 358.42 309.666 368.181 309.666 376.998C309.666 384.092 304.093 388.07 298.158 384.643L279.815 374.053C272.409 369.777 269.151 360.333 269.151 351.643C266.32 352.2 265.903 353.036 264.455 349.907C264.96 347.994 269.941 347.171 269.996 347.203C271.773 348.229 276.819 355.31 276.819 356.564C276.819 360.01 272.87 354.246 272.135 353.366C272.135 357.913 272.376 360.941 274.175 364.501C277.598 371.291 289.557 376.713 296.446 380.691C309.864 388.437 310.533 366.249 297.214 357.635C295.481 356.507 293.232 356.07 292.113 356.45C290.555 356.957 289.941 358.287 288.339 354.841C289.008 351.896 291.751 354.506 291.751 350.401C291.751 336.796 282.327 320.333 272.991 314.943C267.143 311.567 262.568 309.686 258.18 311.459C255.832 312.397 251.97 315.285 251.652 319.371C258.114 323.266 258.432 328.213 256.776 327.257C255.075 326.275 247.747 316.178 240.023 319.915C233.495 323.063 232.398 343.776 252.936 355.583C257.017 357.926 261.899 359.82 261.899 362.227C261.899 363.367 261.603 363.538 260.615 362.968C250.248 356.982 244.576 355.469 238.048 344.466C229.59 330.221 231.948 315.798 242.118 315.653C243.676 315.64 246.606 316.014 248.668 317.154C250.742 308.09 259.979 303.985 271.707 310.756C283.391 317.502 294.318 335.96 294.318 349.426Z" fill="white"/>
<path d="M298.196 392.948L298.196 394.315C298.196 394.981 296.743 394.683 294.95 393.647L246.374 365.602C244.581 364.567 243.128 363.188 243.128 362.521L243.128 361.154C243.128 360.488 244.581 360.787 246.374 361.822L294.95 389.867C296.743 390.902 298.196 392.282 298.196 392.948Z" fill="white"/>
<path d="M298.366 399.855L298.366 401.222C298.366 401.889 296.913 401.59 295.12 400.555L246.544 372.51C244.751 371.474 243.298 370.095 243.298 369.428L243.298 368.062C243.298 367.395 244.751 367.694 246.544 368.729L295.12 396.774C296.913 397.809 298.366 399.189 298.366 399.855Z" fill="white"/>
<path d="M298.27 406.609L298.27 407.976C298.27 408.642 296.816 408.343 295.023 407.308L246.448 379.263C244.655 378.228 243.202 376.848 243.202 376.182L243.202 374.815C243.202 374.149 244.655 374.447 246.448 375.483L295.023 403.528C296.816 404.563 298.27 405.942 298.27 406.609Z" fill="white"/>
<path d="M274.144 339.424C273.975 339.447 273.842 339.507 273.747 339.603C273.651 339.697 273.584 339.85 273.546 340.062C273.508 340.272 273.489 340.558 273.489 340.922C273.489 341.195 273.484 341.393 273.475 341.517C273.463 341.64 273.441 341.726 273.41 341.774C273.377 341.823 273.337 341.845 273.292 341.838C273.247 341.834 273.169 341.81 273.059 341.766C272.969 341.727 272.893 341.735 272.834 341.788C272.774 341.842 272.744 341.941 272.744 342.084C272.744 342.417 272.92 342.685 273.27 342.888C273.488 343.013 273.682 343.073 273.854 343.068C274.024 343.061 274.155 342.988 274.248 342.849C274.341 342.712 274.389 342.521 274.391 342.274C274.398 341.859 274.405 341.527 274.413 341.278C274.42 341.028 274.43 340.87 274.445 340.804C274.481 340.64 274.534 340.532 274.606 340.48C274.675 340.426 274.767 340.392 274.882 340.379C274.994 340.361 275.074 340.334 275.121 340.298C275.169 340.259 275.193 340.17 275.193 340.029C275.193 339.825 275.124 339.632 274.985 339.45C274.814 339.227 274.692 339.052 274.62 338.925C274.546 338.794 274.495 338.653 274.466 338.502C274.435 338.346 274.417 338.187 274.413 338.024C274.408 337.859 274.401 337.466 274.391 336.846C274.384 336.461 274.28 336.098 274.08 335.757C273.877 335.411 273.607 335.141 273.27 334.946C272.92 334.744 272.744 334.806 272.744 335.134C272.744 335.283 272.774 335.418 272.834 335.537C272.891 335.656 272.966 335.749 273.059 335.816C273.198 335.918 273.294 336.007 273.349 336.083C273.404 336.159 273.44 336.265 273.457 336.401C273.473 336.538 273.484 336.789 273.489 337.156C273.494 337.514 273.513 337.817 273.546 338.065C273.577 338.309 273.64 338.539 273.736 338.754C273.829 338.967 273.965 339.191 274.144 339.424ZM267.356 335.504C267.485 335.485 267.59 335.448 267.671 335.393C267.752 335.338 267.819 335.252 267.871 335.136C267.924 335.021 267.961 334.87 267.982 334.684C268.004 334.495 268.015 334.266 268.015 333.995C268.015 333.734 268.019 333.537 268.029 333.404C268.039 333.269 268.058 333.178 268.086 333.131C268.115 333.085 268.155 333.065 268.208 333.074C268.258 333.078 268.336 333.103 268.441 333.15C268.529 333.187 268.604 333.181 268.666 333.131C268.726 333.08 268.756 332.98 268.756 332.832C268.756 332.504 268.583 332.24 268.237 332.04C268.015 331.912 267.82 331.852 267.653 331.86C267.484 331.864 267.351 331.935 267.256 332.073C267.158 332.207 267.108 332.396 267.105 332.639C267.091 333.546 267.074 334.04 267.055 334.119C267.017 334.279 266.961 334.386 266.887 334.44C266.813 334.491 266.723 334.523 266.618 334.537C266.513 334.548 266.436 334.575 266.386 334.618C266.333 334.659 266.307 334.753 266.307 334.899C266.307 335.105 266.375 335.296 266.511 335.471C266.678 335.686 266.8 335.861 266.876 335.996C266.95 336.127 267.003 336.269 267.034 336.422C267.062 336.571 267.08 336.781 267.087 337.053C267.092 337.323 267.098 337.661 267.105 338.068C267.112 338.452 267.219 338.818 267.424 339.165C267.627 339.514 267.898 339.786 268.237 339.982C268.404 340.078 268.533 340.11 268.623 340.077C268.712 340.042 268.756 339.944 268.756 339.781C268.756 339.69 268.741 339.598 268.713 339.504C268.684 339.413 268.647 339.334 268.602 339.266C268.554 339.198 268.5 339.142 268.441 339.099C268.333 339.02 268.253 338.954 268.201 338.898C268.148 338.843 268.109 338.774 268.083 338.69C268.054 338.604 268.036 338.492 268.029 338.353C268.019 338.215 268.015 338.018 268.015 337.762C268.01 337.379 267.991 337.07 267.957 336.836C267.924 336.601 267.861 336.38 267.768 336.172C267.675 335.964 267.537 335.741 267.356 335.504Z" fill="white"/>
<g filter="url(#filter2_b_14_222)">
<rect width="267.151" height="400" rx="16" transform="matrix(-0.866025 -0.5 -2.20305e-08 1 231.359 357.575)" fill="url(#paint4_linear_14_222)" fill-opacity="0.5"/>
</g>
<g clip-path="url(#clip1_14_222)">
<path d="M95.2538 453.154L78.3063 443.369C78.0101 443.208 77.7154 442.977 77.4401 442.692C77.1648 442.406 76.9147 442.072 76.7052 441.709C76.4957 441.346 76.3311 440.962 76.2215 440.581C76.112 440.2 76.0597 439.83 76.068 439.492C76.0487 439.138 76.0961 438.821 76.2067 438.566C76.3174 438.31 76.4885 438.122 76.7075 438.015L97.8119 425.831C98.0139 425.694 98.2623 425.64 98.5389 425.672C98.8155 425.704 99.1134 425.821 99.4107 426.015C99.7069 426.177 100.002 426.407 100.277 426.693C100.552 426.978 100.802 427.313 101.012 427.676C101.221 428.038 101.386 428.422 101.496 428.803C101.605 429.185 101.657 429.555 101.649 429.892L101.649 449.462C101.644 451.415 100.968 452.9 99.7701 453.592C98.5719 454.283 96.9483 454.126 95.2538 453.154V453.154Z" fill="#32509D"/>
<path d="M79.2656 455L101.649 467.923C104.192 469.385 106.629 469.623 108.426 468.585C110.224 467.547 111.237 465.317 111.242 462.385L111.242 436.538C111.242 435.559 111.579 434.815 112.178 434.468C112.778 434.122 113.592 434.203 114.44 434.692L146.416 453.154C148.958 454.628 151.395 457.204 153.193 460.318C154.991 463.432 156.004 466.83 156.009 469.769L156.009 558.385C156.004 561.317 154.991 563.547 153.193 564.585C151.395 565.623 148.958 565.385 146.416 563.923L85.6609 528.846C83.1183 527.372 80.6814 524.796 78.8835 521.682C77.0856 518.568 76.0733 515.17 76.068 512.231L76.068 456.846C76.068 456.361 76.1507 455.929 76.3114 455.574C76.4721 455.218 76.7076 454.947 77.0045 454.776C77.3015 454.605 77.654 454.536 78.0419 454.575C78.4299 454.613 78.8457 454.758 79.2656 455V455ZM143.218 488.231C143.183 487.255 142.831 486.149 142.236 485.14C141.642 484.131 140.849 483.297 140.021 482.808L126.93 475.25C126.521 475.011 126.115 474.866 125.736 474.825C125.356 474.785 125.011 474.848 124.72 475.012C124.429 475.176 124.197 475.437 124.038 475.781C123.878 476.125 123.795 476.544 123.793 477.015L123.793 480.685C123.818 481.661 124.161 482.773 124.753 483.793C125.344 484.812 126.137 485.661 126.97 486.165L140.021 493.7C140.438 493.95 140.852 494.101 141.239 494.145C141.625 494.188 141.977 494.123 142.272 493.953C142.566 493.782 142.799 493.511 142.955 493.154C143.11 492.797 143.186 492.363 143.178 491.877L143.218 488.231ZM95.2538 508.469C95.2538 509.448 95.5907 510.582 96.1903 511.621C96.79 512.659 97.6033 513.518 98.4514 514.008L140.021 538.008C140.869 538.497 141.682 538.578 142.282 538.232C142.881 537.885 143.218 537.141 143.218 536.162L143.218 532.538C143.218 531.559 142.881 530.426 142.282 529.387C141.682 528.348 140.869 527.49 140.021 527L98.4514 503C97.6033 502.51 96.79 502.43 96.1903 502.776C95.5907 503.122 95.2538 503.867 95.2538 504.846L95.2538 508.469ZM88.8585 482.623C88.8505 483.109 88.9274 483.641 89.0845 484.188C89.2416 484.734 89.4759 485.285 89.7736 485.807C90.0713 486.329 90.4265 486.812 90.8184 487.229C91.2104 487.645 91.6311 487.985 92.0561 488.231L140.021 515.923C140.869 516.413 141.682 516.493 142.282 516.147C142.881 515.801 143.218 515.056 143.218 514.077L143.218 510.385C143.218 509.405 142.881 508.272 142.282 507.233C141.682 506.194 140.869 505.336 140.021 504.846L92.0561 477.154C91.2081 476.664 90.3947 476.584 89.7951 476.93C89.1954 477.276 88.8585 478.021 88.8585 479L88.8585 482.623Z" fill="#32509D"/>
<path d="M79.2656 455L101.649 467.923C104.192 469.385 106.629 469.623 108.426 468.585C110.224 467.547 111.237 465.317 111.242 462.385L111.242 436.538C111.242 435.559 111.579 434.815 112.178 434.468C112.778 434.122 113.592 434.203 114.44 434.692L146.416 453.154C148.958 454.628 151.395 457.204 153.193 460.318C154.991 463.432 156.004 466.83 156.009 469.769L156.009 558.385C156.004 561.317 154.991 563.547 153.193 564.585C151.395 565.623 148.958 565.385 146.416 563.923L85.6609 528.846C83.1183 527.372 80.6814 524.796 78.8835 521.682C77.0856 518.568 76.0733 515.17 76.068 512.231L76.068 456.846C76.068 456.361 76.1507 455.929 76.3114 455.574C76.4721 455.218 76.7076 454.947 77.0045 454.776C77.3015 454.605 77.654 454.536 78.0419 454.575C78.4299 454.613 78.8457 454.758 79.2656 455V455ZM143.218 488.231C143.183 487.255 142.831 486.149 142.236 485.14C141.642 484.131 140.849 483.297 140.021 482.808L126.93 475.25C126.521 475.011 126.115 474.866 125.736 474.825C125.356 474.785 125.011 474.848 124.72 475.012C124.429 475.176 124.197 475.437 124.038 475.781C123.878 476.125 123.795 476.544 123.793 477.015L123.793 480.685C123.818 481.661 124.161 482.773 124.753 483.793C125.344 484.812 126.137 485.661 126.97 486.165L140.021 493.7C140.438 493.95 140.852 494.101 141.239 494.145C141.625 494.188 141.977 494.123 142.272 493.953C142.566 493.782 142.799 493.511 142.955 493.154C143.11 492.797 143.186 492.363 143.178 491.877L143.218 488.231ZM95.2538 508.469C95.2538 509.448 95.5907 510.582 96.1903 511.621C96.79 512.659 97.6033 513.518 98.4514 514.008L140.021 538.008C140.869 538.497 141.682 538.578 142.282 538.232C142.881 537.885 143.218 537.141 143.218 536.162L143.218 532.538C143.218 531.559 142.881 530.426 142.282 529.387C141.682 528.348 140.869 527.49 140.021 527L98.4514 503C97.6033 502.51 96.79 502.43 96.1903 502.776C95.5907 503.122 95.2538 503.867 95.2538 504.846L95.2538 508.469ZM88.8585 482.623C88.8505 483.109 88.9274 483.641 89.0845 484.188C89.2416 484.734 89.4759 485.285 89.7736 485.807C90.0713 486.329 90.4265 486.812 90.8184 487.229C91.2104 487.645 91.6311 487.985 92.0561 488.231L140.021 515.923C140.869 516.413 141.682 516.493 142.282 516.147C142.881 515.801 143.218 515.056 143.218 514.077L143.218 510.385C143.218 509.405 142.881 508.272 142.282 507.233C141.682 506.194 140.869 505.336 140.021 504.846L92.0561 477.154C91.2081 476.664 90.3947 476.584 89.7951 476.93C89.1954 477.276 88.8585 478.021 88.8585 479L88.8585 482.623Z" fill="#32509D"/>
</g>
<defs>
<filter id="filter0_b_14_222" x="268" y="-35.8925" width="300.506" height="546.785" filterUnits="userSpaceOnUse" color-interpolation-filters="sRGB">
<feFlood flood-opacity="0" result="BackgroundImageFix"/>
<feGaussianBlur in="BackgroundImage" stdDeviation="21"/>
<feComposite in2="SourceAlpha" operator="in" result="effect1_backgroundBlur_14_222"/>
<feBlend mode="normal" in="SourceGraphic" in2="effect1_backgroundBlur_14_222" result="shape"/>
</filter>
<filter id="filter1_b_14_222" x="112.134" y="45.9893" width="317.091" height="607.597" filterUnits="userSpaceOnUse" color-interpolation-filters="sRGB">
<feFlood flood-opacity="0" result="BackgroundImageFix"/>
<feGaussianBlur in="BackgroundImage" stdDeviation="21"/>
<feComposite in2="SourceAlpha" operator="in" result="effect1_backgroundBlur_14_222"/>
<feBlend mode="normal" in="SourceGraphic" in2="effect1_backgroundBlur_14_222" result="shape"/>
</filter>
<filter id="filter2_b_14_222" x="-42" y="188.108" width="315.359" height="605.36" filterUnits="userSpaceOnUse" color-interpolation-filters="sRGB">
<feFlood flood-opacity="0" result="BackgroundImageFix"/>
<feGaussianBlur in="BackgroundImage" stdDeviation="21"/>
<feComposite in2="SourceAlpha" operator="in" result="effect1_backgroundBlur_14_222"/>
<feBlend mode="normal" in="SourceGraphic" in2="effect1_backgroundBlur_14_222" result="shape"/>
</filter>
<linearGradient id="paint0_linear_14_222" x1="0" y1="0" x2="250" y2="350" gradientUnits="userSpaceOnUse">
<stop stop-color="#32509D" stop-opacity="0.4"/>
<stop offset="1" stop-color="#32509D" stop-opacity="0"/>
</linearGradient>
<radialGradient id="paint1_radial_14_222" cx="0" cy="0" r="1" gradientUnits="userSpaceOnUse" gradientTransform="translate(133.575 200) rotate(-121.539) scale(325.846 226.188)">
<stop stop-color="white"/>
<stop offset="1" stop-color="white" stop-opacity="0"/>
</radialGradient>
<radialGradient id="paint2_radial_14_222" cx="0" cy="0" r="1" gradientUnits="userSpaceOnUse" gradientTransform="translate(133.575 200) rotate(52.1517) scale(261.241 183.923)">
<stop stop-color="#17B384"/>
<stop offset="1" stop-color="#17B384" stop-opacity="0"/>
</radialGradient>
<radialGradient id="paint3_radial_14_222" cx="0" cy="0" r="1" gradientUnits="userSpaceOnUse" gradientTransform="translate(133.575 200) rotate(124.627) scale(257.636 180.059)">
<stop stop-color="#151515"/>
<stop offset="1" stop-color="#151515" stop-opacity="0"/>
</radialGradient>
<linearGradient id="paint4_linear_14_222" x1="0" y1="0" x2="291.41" y2="381.467" gradientUnits="userSpaceOnUse">
<stop stop-color="#32509D" stop-opacity="0.4"/>
<stop offset="1" stop-color="#32509D" stop-opacity="0"/>
</linearGradient>
<clipPath id="clip0_14_222">
<rect width="120" height="120" fill="white" transform="matrix(-0.866025 -0.5 -2.20305e-08 1 470.215 207.5)"/>
</clipPath>
<clipPath id="clip1_14_222">
<rect width="120" height="120" fill="white" transform="matrix(-0.866025 -0.5 -2.20305e-08 1 168 461)"/>
</clipPath>
</defs>
</svg>
