<svg width="574" height="600" viewBox="0 0 574 600" fill="none" xmlns="http://www.w3.org/2000/svg">
<g clip-path="url(#clip0_40_396)">
<path d="M221.809 600C344.311 600 443.619 582.456 443.619 560.815C443.619 539.173 344.311 521.63 221.809 521.63C99.3075 521.63 0 539.173 0 560.815C0 582.456 99.3075 600 221.809 600Z" fill="white" fill-opacity="0.1"/>
<path d="M356.621 433.553C476.343 433.553 573.397 336.499 573.397 216.777C573.397 97.0541 476.343 0 356.621 0C236.898 0 139.844 97.0541 139.844 216.777C139.844 336.499 236.898 433.553 356.621 433.553Z" fill="white" fill-opacity="0.1"/>
<path opacity="0.05" d="M356.621 395.732C455.455 395.732 535.577 315.611 535.577 216.776C535.577 117.942 455.455 37.8206 356.621 37.8206C257.786 37.8206 177.665 117.942 177.665 216.776C177.665 315.611 257.786 395.732 356.621 395.732Z" fill="black"/>
<path opacity="0.05" d="M356.621 363.447C437.624 363.447 503.291 297.78 503.291 216.777C503.291 135.773 437.624 70.1064 356.621 70.1064C275.617 70.1064 209.951 135.773 209.951 216.777C209.951 297.78 275.617 363.447 356.621 363.447Z" fill="black"/>
<path opacity="0.05" d="M356.621 321.936C414.699 321.936 461.78 274.855 461.78 216.776C461.78 158.698 414.699 111.617 356.621 111.617C298.543 111.617 251.461 158.698 251.461 216.776C251.461 274.855 298.543 321.936 356.621 321.936Z" fill="black"/>
<path d="M141.764 236.177C141.764 236.177 124.721 284.149 132.296 301.192C139.87 318.235 151.864 334.647 151.864 334.647C151.864 334.647 147.445 239.333 141.764 236.177Z" fill="white"/>
<path opacity="0.1" d="M141.764 236.177C141.764 236.177 124.721 284.149 132.296 301.192C139.87 318.235 151.864 334.647 151.864 334.647C151.864 334.647 147.445 239.333 141.764 236.177Z" fill="black"/>
<path d="M153.757 347.272C153.757 347.272 152.495 359.265 151.864 359.896C151.232 360.527 152.495 361.79 151.864 363.683C151.232 365.577 150.601 368.102 151.864 368.733C153.126 369.364 144.92 424.912 144.92 424.912C144.92 424.912 124.721 451.423 132.927 493.084L135.452 535.375C135.452 535.375 155.02 536.638 155.02 529.694C155.02 529.694 153.757 521.489 153.757 517.701C153.757 513.914 156.913 513.914 155.02 512.02C153.126 510.127 153.126 508.864 153.126 508.864C153.126 508.864 156.282 506.339 155.651 505.708C155.02 505.077 161.332 460.26 161.332 460.26C161.332 460.26 168.275 453.317 168.275 449.529V445.742C168.275 445.742 171.431 437.536 171.431 436.905C171.431 436.274 188.474 397.769 188.474 397.769L195.418 425.543L202.993 465.31C202.993 465.31 206.78 501.29 214.355 515.176C214.355 515.176 227.61 560.624 227.61 559.362C227.61 558.099 249.703 554.943 249.072 549.262C248.44 543.581 235.816 464.047 235.816 464.047L238.972 346.009L153.757 347.272Z" fill="#2F2E41"/>
<path d="M136.714 532.219C136.714 532.219 119.671 565.674 131.033 566.937C142.395 568.199 146.814 568.199 151.864 563.149C154.624 560.389 160.215 556.685 164.716 553.894C167.383 552.267 169.538 549.921 170.933 547.126C172.328 544.33 172.906 541.198 172.603 538.089C172.27 535.001 171.116 532.456 168.275 532.219C160.701 531.588 151.864 524.645 151.864 524.645L136.714 532.219Z" fill="#2F2E41"/>
<path d="M230.766 556.837C230.766 556.837 213.723 590.292 225.085 591.554C236.447 592.816 240.866 592.817 245.916 587.767C248.676 585.006 254.267 581.302 258.768 578.511C261.435 576.884 263.59 574.539 264.985 571.743C266.38 568.948 266.958 565.816 266.655 562.707C266.322 559.618 265.168 557.074 262.327 556.837C254.753 556.206 245.916 549.262 245.916 549.262L230.766 556.837Z" fill="#2F2E41"/>
<path d="M212.754 181.429C227.408 181.429 239.288 169.549 239.288 154.895C239.288 140.24 227.408 128.36 212.754 128.36C198.099 128.36 186.219 140.24 186.219 154.895C186.219 169.549 198.099 181.429 212.754 181.429Z" fill="#FFB8B8"/>
<path d="M195.696 163.613C195.696 163.613 176.743 198.486 175.227 198.486C173.711 198.486 209.342 209.858 209.342 209.858C209.342 209.858 219.198 176.501 220.714 173.468L195.696 163.613Z" fill="#FFB8B8"/>
<path d="M224.77 201.775C224.77 201.775 186.896 180.945 183.109 181.576C179.322 182.207 138.924 217.556 139.555 232.074C140.186 246.592 145.236 270.578 145.236 270.578C145.236 270.578 147.129 337.488 150.917 338.119C154.704 338.75 150.286 350.112 151.548 350.112C152.81 350.112 239.919 350.112 240.55 348.218C241.181 346.325 224.77 201.775 224.77 201.775Z" fill="white"/>
<path d="M245.916 351.69C245.916 351.69 257.909 388.301 247.809 387.039C237.71 385.776 233.291 355.477 233.291 355.477L245.916 351.69Z" fill="#FFB8B8"/>
<path d="M213.723 199.566C213.723 199.566 190.368 204.616 194.156 236.177C197.943 267.738 204.886 299.299 204.886 299.299L228.241 350.428L230.766 359.896L247.809 355.477L235.185 282.256C235.185 282.256 230.766 203.984 225.085 201.459C221.503 199.932 217.607 199.283 213.723 199.566Z" fill="white"/>
<path opacity="0.1" d="M199.521 298.352L228.557 350.112L204.093 295.571L199.521 298.352Z" fill="black"/>
<path d="M239.17 147.081L239.258 145.054L243.292 146.058C243.248 145.407 243.064 144.773 242.752 144.2C242.44 143.627 242.008 143.129 241.484 142.74L245.781 142.499C242.175 137.376 237.569 133.036 232.24 129.743C226.911 126.45 220.969 124.27 214.775 123.337C205.481 121.99 195.133 123.939 188.76 130.837C185.669 134.182 183.726 138.436 182.345 142.777C179.8 150.771 179.282 160.3 184.588 166.798C189.981 173.402 199.401 174.696 207.887 175.513C210.874 175.8 214.003 176.068 216.77 174.909C217.078 171.735 216.672 168.533 215.581 165.536C215.127 164.608 214.91 163.583 214.949 162.55C215.327 160.026 218.694 159.389 221.224 159.731C223.754 160.072 226.797 160.594 228.459 158.656C229.604 157.322 229.536 155.378 229.688 153.626C230.101 148.857 239.127 148.081 239.17 147.081Z" fill="#2F2E41"/>
<path d="M312.701 208.931L319.393 219.056V208.838C319.393 208.174 319.533 207.677 319.815 207.349C320.104 207.013 320.49 206.845 320.975 206.845C321.475 206.845 321.869 207.013 322.158 207.349C322.448 207.677 322.592 208.174 322.592 208.838V222.349C322.592 223.857 321.967 224.611 320.717 224.611C320.405 224.611 320.123 224.564 319.873 224.47C319.623 224.385 319.389 224.244 319.17 224.049C318.951 223.853 318.748 223.627 318.561 223.369C318.373 223.103 318.186 222.834 317.998 222.56L311.471 212.552V222.619C311.471 223.275 311.319 223.771 311.014 224.107C310.709 224.443 310.319 224.611 309.842 224.611C309.35 224.611 308.955 224.443 308.658 224.107C308.362 223.763 308.213 223.267 308.213 222.619V209.365C308.213 208.802 308.276 208.361 308.401 208.041C308.549 207.689 308.795 207.404 309.139 207.185C309.483 206.959 309.854 206.845 310.252 206.845C310.565 206.845 310.83 206.896 311.049 206.998C311.276 207.099 311.471 207.236 311.635 207.408C311.807 207.58 311.979 207.802 312.151 208.076C312.33 208.349 312.514 208.635 312.701 208.931ZM338.155 218.107C338.155 219.06 338.006 219.939 337.709 220.744C337.412 221.549 336.983 222.24 336.42 222.818C335.858 223.396 335.186 223.842 334.405 224.154C333.623 224.459 332.744 224.611 331.768 224.611C330.799 224.611 329.928 224.455 329.155 224.142C328.381 223.83 327.709 223.385 327.139 222.806C326.576 222.22 326.147 221.533 325.85 220.744C325.561 219.947 325.416 219.068 325.416 218.107C325.416 217.138 325.565 216.252 325.862 215.447C326.158 214.642 326.584 213.955 327.139 213.385C327.694 212.814 328.365 212.377 329.155 212.072C329.944 211.76 330.815 211.603 331.768 211.603C332.737 211.603 333.615 211.76 334.405 212.072C335.194 212.385 335.869 212.83 336.432 213.408C336.994 213.986 337.42 214.674 337.709 215.47C338.006 216.267 338.155 217.146 338.155 218.107ZM334.944 218.107C334.944 216.802 334.655 215.787 334.076 215.06C333.506 214.334 332.737 213.97 331.768 213.97C331.143 213.97 330.592 214.135 330.115 214.463C329.639 214.783 329.272 215.26 329.014 215.892C328.756 216.525 328.627 217.263 328.627 218.107C328.627 218.943 328.752 219.674 329.002 220.299C329.26 220.924 329.623 221.404 330.092 221.74C330.569 222.068 331.127 222.232 331.768 222.232C332.737 222.232 333.506 221.869 334.076 221.142C334.655 220.408 334.944 219.396 334.944 218.107ZM349.065 207.138H353.6C354.78 207.138 355.791 207.248 356.635 207.467C357.479 207.685 358.244 208.095 358.932 208.697C360.721 210.228 361.615 212.556 361.615 215.681C361.615 216.713 361.526 217.654 361.346 218.506C361.166 219.357 360.889 220.127 360.514 220.814C360.139 221.494 359.658 222.103 359.073 222.642C358.612 223.056 358.108 223.388 357.561 223.638C357.014 223.888 356.424 224.064 355.791 224.166C355.166 224.267 354.459 224.318 353.67 224.318H349.135C348.502 224.318 348.026 224.224 347.705 224.037C347.385 223.842 347.174 223.572 347.073 223.228C346.979 222.877 346.932 222.424 346.932 221.869V209.271C346.932 208.521 347.1 207.978 347.436 207.642C347.772 207.306 348.315 207.138 349.065 207.138ZM350.412 209.892V221.552H353.049C353.627 221.552 354.08 221.537 354.408 221.506C354.737 221.474 355.076 221.396 355.428 221.271C355.78 221.146 356.084 220.97 356.342 220.744C357.506 219.76 358.088 218.064 358.088 215.658C358.088 213.963 357.83 212.693 357.315 211.849C356.807 211.006 356.178 210.47 355.428 210.244C354.678 210.01 353.772 209.892 352.709 209.892H350.412ZM372.537 222.806C371.764 223.408 371.014 223.861 370.287 224.166C369.569 224.463 368.76 224.611 367.862 224.611C367.041 224.611 366.319 224.451 365.694 224.131C365.076 223.802 364.6 223.361 364.264 222.806C363.928 222.252 363.76 221.65 363.76 221.002C363.76 220.127 364.037 219.381 364.592 218.763C365.147 218.146 365.908 217.732 366.877 217.521C367.08 217.474 367.584 217.369 368.389 217.205C369.194 217.041 369.881 216.892 370.451 216.76C371.03 216.619 371.655 216.451 372.326 216.256C372.287 215.412 372.115 214.795 371.811 214.404C371.514 214.006 370.893 213.806 369.948 213.806C369.135 213.806 368.522 213.92 368.108 214.146C367.701 214.373 367.35 214.713 367.053 215.166C366.764 215.619 366.557 215.92 366.432 216.068C366.315 216.209 366.057 216.279 365.658 216.279C365.299 216.279 364.987 216.166 364.721 215.939C364.463 215.705 364.334 215.408 364.334 215.049C364.334 214.486 364.533 213.939 364.932 213.408C365.33 212.877 365.951 212.439 366.795 212.095C367.639 211.752 368.69 211.58 369.948 211.58C371.354 211.58 372.459 211.748 373.264 212.084C374.069 212.412 374.635 212.935 374.963 213.654C375.299 214.373 375.467 215.326 375.467 216.513C375.467 217.263 375.463 217.9 375.455 218.424C375.455 218.947 375.451 219.529 375.444 220.17C375.444 220.771 375.541 221.4 375.737 222.056C375.94 222.705 376.041 223.123 376.041 223.31C376.041 223.638 375.885 223.939 375.573 224.213C375.268 224.478 374.92 224.611 374.53 224.611C374.201 224.611 373.877 224.459 373.557 224.154C373.237 223.842 372.897 223.392 372.537 222.806ZM372.326 218.177C371.858 218.349 371.174 218.533 370.276 218.728C369.385 218.916 368.768 219.056 368.424 219.15C368.08 219.236 367.752 219.412 367.44 219.677C367.127 219.935 366.971 220.299 366.971 220.767C366.971 221.252 367.155 221.666 367.522 222.01C367.889 222.345 368.369 222.513 368.963 222.513C369.596 222.513 370.178 222.377 370.709 222.103C371.248 221.822 371.643 221.463 371.893 221.025C372.182 220.541 372.326 219.744 372.326 218.635V218.177ZM378.291 211.885H378.643V209.963C378.643 209.447 378.655 209.045 378.678 208.756C378.709 208.459 378.787 208.205 378.912 207.994C379.037 207.775 379.217 207.599 379.451 207.467C379.686 207.326 379.948 207.256 380.237 207.256C380.643 207.256 381.01 207.408 381.338 207.713C381.557 207.916 381.694 208.166 381.748 208.463C381.811 208.752 381.842 209.166 381.842 209.705V211.885H383.014C383.467 211.885 383.811 211.994 384.045 212.213C384.287 212.424 384.408 212.697 384.408 213.033C384.408 213.463 384.237 213.763 383.893 213.935C383.557 214.107 383.073 214.193 382.44 214.193H381.842V220.076C381.842 220.576 381.858 220.963 381.889 221.236C381.928 221.502 382.022 221.72 382.17 221.892C382.326 222.056 382.576 222.138 382.92 222.138C383.108 222.138 383.362 222.107 383.682 222.045C384.002 221.974 384.252 221.939 384.432 221.939C384.69 221.939 384.92 222.045 385.123 222.256C385.334 222.459 385.44 222.713 385.44 223.017C385.44 223.533 385.158 223.927 384.596 224.201C384.033 224.474 383.225 224.611 382.17 224.611C381.17 224.611 380.412 224.443 379.897 224.107C379.381 223.771 379.041 223.306 378.877 222.713C378.721 222.119 378.643 221.326 378.643 220.334V214.193H378.221C377.76 214.193 377.408 214.084 377.166 213.865C376.924 213.646 376.803 213.369 376.803 213.033C376.803 212.697 376.928 212.424 377.178 212.213C377.436 211.994 377.807 211.885 378.291 211.885ZM394.709 222.806C393.936 223.408 393.186 223.861 392.459 224.166C391.74 224.463 390.932 224.611 390.033 224.611C389.213 224.611 388.49 224.451 387.865 224.131C387.248 223.802 386.772 223.361 386.436 222.806C386.1 222.252 385.932 221.65 385.932 221.002C385.932 220.127 386.209 219.381 386.764 218.763C387.319 218.146 388.08 217.732 389.049 217.521C389.252 217.474 389.756 217.369 390.561 217.205C391.365 217.041 392.053 216.892 392.623 216.76C393.201 216.619 393.826 216.451 394.498 216.256C394.459 215.412 394.287 214.795 393.983 214.404C393.686 214.006 393.065 213.806 392.119 213.806C391.307 213.806 390.694 213.92 390.28 214.146C389.873 214.373 389.522 214.713 389.225 215.166C388.936 215.619 388.729 215.92 388.604 216.068C388.487 216.209 388.229 216.279 387.83 216.279C387.471 216.279 387.158 216.166 386.893 215.939C386.635 215.705 386.506 215.408 386.506 215.049C386.506 214.486 386.705 213.939 387.104 213.408C387.502 212.877 388.123 212.439 388.967 212.095C389.811 211.752 390.862 211.58 392.119 211.58C393.526 211.58 394.631 211.748 395.436 212.084C396.24 212.412 396.807 212.935 397.135 213.654C397.471 214.373 397.639 215.326 397.639 216.513C397.639 217.263 397.635 217.9 397.627 218.424C397.627 218.947 397.623 219.529 397.615 220.17C397.615 220.771 397.713 221.4 397.908 222.056C398.112 222.705 398.213 223.123 398.213 223.31C398.213 223.638 398.057 223.939 397.744 224.213C397.44 224.478 397.092 224.611 396.701 224.611C396.373 224.611 396.049 224.459 395.729 224.154C395.408 223.842 395.069 223.392 394.709 222.806ZM394.498 218.177C394.03 218.349 393.346 218.533 392.448 218.728C391.557 218.916 390.94 219.056 390.596 219.15C390.252 219.236 389.924 219.412 389.612 219.677C389.299 219.935 389.143 220.299 389.143 220.767C389.143 221.252 389.326 221.666 389.694 222.01C390.061 222.345 390.541 222.513 391.135 222.513C391.768 222.513 392.35 222.377 392.881 222.103C393.42 221.822 393.815 221.463 394.065 221.025C394.354 220.541 394.498 219.744 394.498 218.635V218.177Z" fill="white" fill-opacity="0.5"/>
</g>
<defs>
<clipPath id="clip0_40_396">
<rect width="573.397" height="600" fill="white"/>
</clipPath>
</defs>
</svg>
